<?xml version="1.0" encoding="utf-8"?>
<!-- Generator: Adobe Illustrator 21.1.0, SVG Export Plug-In . SVG Version: 6.00 Build 0)  -->
<svg version="1.1" id="Capa_1" xmlns="http://www.w3.org/2000/svg" xmlns:xlink="http://www.w3.org/1999/xlink" x="0px" y="0px"
	 viewBox="0 0 439.1 429.7" style="enable-background:new 0 0 439.1 429.7;" xml:space="preserve">
<style type="text/css">
	.st0{fill:#354433;}
	.st1{fill:#8E6D3A;}
	.st2{fill:#97B263;}
</style>
<g>
	<path class="st0" d="M194.8,25.3c5.7,0,11.2,0,16.9,0c4.7,1.3,9.5,1.6,14.3,2.7c3.2,0.9,6.3,1.9,9.5,2.8c3.3,1.4,6.6,2.8,9.9,4.3
		c0.5,0.5,1.1,0.9,1.9,0.9c3.2,2,6.3,4.2,9.5,6.2c1.6,1.4,3.2,2.9,4.8,4.3c1.9,2.4,3.8,4.9,5.8,7.3c0.6,1.3,1.4,2.5,2,3.9
		c0.6,1.8,1.1,3.4,1.8,5.2c0.1,0.1,0.4,0.4,0.5,0.4c5.7-0.3,11.2,0.4,16.8,1.1c3.5,0.9,7.1,1.8,10.5,2.7c0.6,0.5,1.3,0.6,2,0.6
		c2.9,1.1,5.7,2.1,8.6,3.3c3.5,1.8,7.1,3.5,10.6,5.2c1.1,0.6,2.1,1.3,3.3,2c2.4,1.6,4.8,3.3,7.2,4.9c5.9,4.8,11.4,10.1,15.9,16.2
		c1.8,3,3.5,6.1,5.2,9.1c0.3,0.5,0.4,1,0.6,1.4c1,3.5,2,7.1,3.2,10.6c0.3,3.5,0.4,7.1,0.6,10.6c-0.5,3.5-1,7.1-1.5,10.6
		c-1.9,7.2-5.1,14-8.6,20.6c-2.5,3.9-5.1,7.7-7.6,11.6c-2.1,3.4-4.9,6.3-6.6,10c-1.3,1.4-1.3,2.9-0.4,4.5c1.1,2,2.3,4,3.4,6.1
		c3.8,7.3,7.1,14.8,9,22.9c0.3,2.3,0.5,4.4,0.9,6.7c-0.1,0.8-0.3,1.5,0.3,2.1l0,0c-0.3,4-0.6,8.1-0.9,12c-0.9,3-1.6,5.9-2.5,9
		c-1.6,3.5-3.2,7.1-4.8,10.6c-6.7,11.4-14.8,21.5-27.2,27.2c-2.8,1-5.6,2-8.6,2.4c-1.3,0.1-1.8,0.9-2,2c-2.9,3.9-6.1,7.6-9.9,10.6
		c-0.3,0.1-0.4,0.3-0.6,0.5c-3.3,2-6.8,3.7-10.5,4.8c-3.5,0.6-7.1,0.8-10.6,0.6c-3.7-0.5-7.1-1.6-10.5-2.8c-1.6-0.9-3.2-1.6-4.8-2.5
		c-5.8-3.8-11.1-8.1-15.8-13.3c-3.5-3.9-2.9-4.8-5.7,1.3c-2.8,5.9-6.4,11.1-11.6,15.3c-2.3,1.8-4.9,2.8-7.1,4.7c-0.4,0-0.8-0.1-1,0
		c-10.2,3.7-19.5,1.8-27.9-4.9c-1.1-1.1-2.1-2.4-3.3-3.5c-1.6-2.8-2.8-6.6-7.5-5.2c-3.5-0.3-7.1-0.4-10.5-0.6
		c-3.5-0.5-7.1-1-10.6-1.5c-3.5-0.9-7.1-1.8-10.6-2.7c-0.6-0.5-1.3-0.6-2-0.6c-2.7-1.1-5.3-2.1-8-3.3c-3.8-2.1-7.6-4.3-11.1-6.9
		c-0.1-0.1-0.4-0.3-0.5-0.4c-6.7-5.9-11.2-13.1-13.1-21.9c-0.9-3.4,1.1-6.2,2-9.2c0.6-0.6,0.9-1.4,1-2.1c2-3.2,3.9-6.3,6.9-8.8l0,0
		l0,0c0.6-0.3,1.5-0.6,0.1-1.3c-2.4-1-4.8-2.1-7.1-3.2c-6.9-4.3-12.5-10-16.9-16.9c-1.4-2.9-2.8-5.7-4.2-8.6c0-0.8-0.3-1.4-0.6-2
		c-1-3.9-2-7.8-3-11.7c-0.4-3.2-0.8-6.3-1.1-9.3c0-3.5,0-7.1,0-10.6c0.3-2.8,0.5-5.6,0.8-8.2c0.8-4.3,1.5-8.6,2.3-12.9
		c0.5-1.8,1-3.5,1.6-5.3c2.1-6.1,6.2-10.9,10.1-15.8c0.3-0.3,0.4-0.4,0.6-0.6c3.5-3.3,7.1-6.7,10.5-10c6.8-5.2,13.6-10.2,21.1-14.4
		c1.4-0.3,1.8-1.1,1.5-2.4c-1-8.5-0.8-16.9,1-25.4c1.3-3.5,2.4-7.1,3.7-10.5c1.6-3,3.3-5.9,4.9-9c0.3-0.3,0.4-0.6,0.6-0.9
		c2.9-3.9,6.1-7.6,9.5-11.1c6.4-5.8,13.5-10.6,21-14.8c3.5-1.3,6.9-2.7,10.5-3.9C186.7,27,190.8,26.1,194.8,25.3z M122.4,235.3
		c-8.6,3.2-9.2,6.1-12,11.2c-1.8,3-3.7,6.3-2.8,10.4c2.8,12.1,10.2,20.3,20.8,26c14.2,7.5,29.4,9.7,45.2,10.1c1.9,0,2-0.6,1.6-2.1
		c-0.8-3.2-1.4-6.3-0.5-9.6c0.4-1.4-0.3-2.1-1.8-2c-3.4,0-6.7-0.9-10-2.1c-10.6-3.8-17.2-13.4-16.6-24.5c0.5-8,3.7-14.9,9.1-20.8
		c2.5-2.8,5.4-4.9,8.6-6.9c0.6-0.4,1.4-0.9,1.9,0c0.6,1-0.5,1-1,1.4c-1.4,1-3,1.9-4.3,3c-7.5,6.3-12.3,14.3-12.5,24.3
		c-0.4,10.7,6.9,19.8,17.3,22.7c3.3,1,6.7,1.3,10,1.9c1.1,0.3,1.6,0.4,1.4,1.8c-1.5,8.5,0.8,15.7,7.1,21.9c8.7,8.6,25.3,8.8,34.7,0
		c5.9-5.6,10.2-11.9,12.9-19.6c0.3-0.6,0.4-1.5,1.1-1.6c0.6,0,0.9,0.8,1.3,1.1c6.7,8.5,14.3,15.7,24.4,20c5.7,2.4,11.5,3,17.6,1.9
		c8.3-1.5,14.9-6.2,19.7-13c8.7-12.3,11.4-25.6,6.9-40.1c-2.1-7.1-6.6-12.8-12.1-17.6c-0.6-0.5-2-0.8-1-1.9c0.9-1,1.5,0.3,2,0.8
		c1.8,1.6,3.5,3.3,5.1,5.1c7.1,8,9.9,17.4,9.7,27.9c-0.1,6.6-1.8,12.8-4.5,18.8c-0.3,0.5-0.9,1-0.3,1.6c0.5,0.4,1,0,1.5-0.1
		c9.1-2.4,16.4-7.6,22.5-14.7c8.1-9.3,13.9-19.7,16.4-31.8c1.4-6.4,1.5-13,0.4-19.5c-1.6-10.4-6.3-19.7-11.6-28.6
		c-1.9-3.2-2-5.8,0.1-8.7c0.5-0.8,1-1.4,1.5-2.1c6.7-9.7,13.5-19.2,17.9-30.3c5.8-14.7,5.9-29.1-1.5-43.2
		c-4.2-7.8-10.1-14.2-16.9-20c-8.3-7.1-17.8-12.1-28-15.9c-10.2-3.8-20.8-6.2-32-5.4c-1.4,0.1-2.1-0.4-2.5-1.9
		c-1-4.2-2.9-8-5.4-11.2c-5.2-6.7-11.7-11.5-19.2-15.2c-10.4-5.2-21.5-8-33-9.1c-10.7-1.1-21.2-0.5-31.5,3
		c-12.3,4.2-22.5,11.7-31.3,21.1c-5.7,6.1-9.7,13-12.8,20.7c-3,7.8-3.8,16.2-3.5,24.5c0.3,10.9,3.5,20.3,10.9,28.6
		c8,8.7,20.6,12.1,31.7,8.3c3.3-1.1,5.9-3,8.3-5.3c0.4-0.4,0.8-1.3,1.5-0.5c0.6,0.6,0.4,1.3-0.3,1.9c-0.3,0.3-0.8,0.5-1,0.8
		c-5.7,4.9-12.3,6.7-19.7,6.3c-9.5-0.5-16.9-4.7-23-11.7c-4-4.7-6.7-10.1-8.3-15.9c-0.5-1.8-1-2.3-2.9-1.1
		C118,114.6,107.5,123,98.4,133c-4.5,4.9-8.3,10.4-10.1,17.1c-2,7.7-3.2,15.5-3.5,23.5c-0.4,7.3,0,14.5,1.6,21.7
		c2.3,10.4,6.2,20,13.5,27.8C105.7,229.2,112.8,233.8,122.4,235.3z"/>
	<path class="st1" d="M211.7,307.4c2.1-1.9,4.9-2.9,7.1-4.7c5.2-4.2,8.8-9.3,11.6-15.3c2.8-6.1,2.1-5.2,5.7-1.3
		c4.7,5.2,10,9.5,15.8,13.3c0,3.3,0,6.7,0,10c-0.3,3.5-0.3,7.1,0,10.6c-0.3,3.5-0.3,7.1,0,10.6c0,3.5,0,7.1,0,10.5
		c0,3.5,0.1,7.1,0.1,10.6c0,1.6,0.1,3.2,0.1,4.8c-0.3,0.6-0.1,1.1,0.1,1.6c0,1.4,0.1,2.7,0.1,4c0,3.9,0.1,7.8,1,11.6
		c0,0.4,0,0.8,0,1c0.9,8.5,4.8,14.3,13.6,15.9c2,1.3,4.7,1.3,6.6,3c-1.6,2-4.2,2.3-6.6,2.8c-2.3,0.1-4.5,0.3-6.8,0.4
		c0.6,2.9,0.4,3.3-2.5,3.7c-0.4,0-0.9,0.1-1.3,0.3c-1.5-0.1-3.2-0.1-4.7-0.3c-0.1,0-0.4,0-0.5,0c-1.8-0.4-3.5-0.8-5.3-0.6
		c-1.3-0.8-2-0.4-2.7,0.9c-0.8,1.4-1.8,2.5-3.2,3.4c-4.4,0.1-8.2-1.9-12.1-3.7c-0.9-0.4-1.8-0.8-2.7-1.1c-1.5-0.8-2.7-2.9-4.7-2.3
		c-2.1,0.6-4.4,1.1-6.6,1.6c-3.3,0.3-6.6,0.5-9.9,0.6c-0.4-0.5-0.8-1.3-0.6-1.9c0.3-1.9-0.8-1.9-2.3-1.8c-2.8,0.3-5.6,0.3-8.2-0.5
		c-0.1-0.5-0.3-1-0.4-1.5c0.3-0.4,0.6-0.8,0.9-1.1c2.7-1.8,5.2-3.9,8.1-5.3c5.9-2.9,8.2-7.5,7.8-13.8c0-0.1,0-0.1,0-0.3
		c0.5-3.8,0.9-7.6,0.8-11.4c0.1-1.9,0.1-3.7,0.3-5.6c0.5-0.9,0.4-1.9,0.3-2.9c0-0.8,0-1.4,0-2.1c0-3.5,0.1-7.1,0.1-10.6
		c0.3-1.1,0.4-2.3,0.1-3.4c0-0.3,0-0.5,0-0.8c0.4-2.1,0.3-4.3,0.1-6.3c0-3.5,0-7.1,0-10.6c0-3.7,0-7.3,0-11
		C211.6,308.5,211.7,308,211.7,307.4z"/>
	<path class="st2" d="M122.4,234.4c-9.5-1.5-16.7-6.1-22.6-12.4c-7.5-7.8-11.4-17.4-13.5-27.8c-1.5-7.2-2-14.4-1.6-21.7
		c0.4-8,1.5-15.8,3.5-23.5c1.8-6.7,5.6-12.1,10.1-17.1c9.1-10,19.6-18.3,31.5-24.9c1.9-1,2.4-0.5,2.9,1.1c1.8,5.8,4.3,11.2,8.3,15.9
		c6.1,6.9,13.5,11.1,23,11.7c7.5,0.4,14-1.5,19.7-6.3c0.4-0.3,0.8-0.5,1-0.8c0.5-0.5,0.9-1.3,0.3-1.9c-0.8-0.6-1.1,0.3-1.5,0.5
		c-2.4,2.4-5.1,4.3-8.3,5.3c-11.1,3.8-23.8,0.4-31.7-8.3c-7.5-8.1-10.6-17.7-10.9-28.6c-0.3-8.5,0.5-16.7,3.5-24.5
		c2.9-7.7,6.9-14.7,12.8-20.7c8.8-9.3,19.1-16.9,31.3-21.1c10.1-3.5,20.7-4.2,31.5-3c11.5,1.1,22.6,3.9,33,9.1
		c7.5,3.7,14,8.6,19.2,15.2c2.7,3.4,4.4,7.2,5.4,11.2c0.4,1.6,1.1,2,2.5,1.9c11.1-0.6,21.7,1.6,32,5.4c10.1,3.8,19.7,8.8,28,15.9
		c6.7,5.7,12.8,12,16.9,20c7.5,14.2,7.3,28.6,1.5,43.2c-4.4,11.1-11.2,20.6-17.9,30.3c-0.5,0.8-1,1.5-1.5,2.1
		c-2,2.9-1.9,5.6-0.1,8.7c5.3,9,10,18.2,11.6,28.6c1,6.6,1,13-0.4,19.5c-2.5,12.1-8.5,22.5-16.4,31.8c-6.2,7.1-13.4,12.3-22.5,14.7
		c-0.5,0.1-1,0.5-1.5,0.1c-0.6-0.6,0-1.1,0.3-1.6c2.8-5.9,4.4-12.3,4.5-18.8c0.3-10.4-2.7-20-9.7-27.9c-1.5-1.8-3.3-3.4-5.1-5.1
		c-0.5-0.5-1.1-1.8-2-0.8c-1,1.1,0.4,1.4,1,1.9c5.6,4.8,10,10.5,12.1,17.6c4.4,14.5,1.8,27.9-6.9,40.1c-4.9,6.8-11.4,11.5-19.7,13
		c-5.9,1-11.9,0.5-17.6-1.9c-10.1-4.3-17.7-11.5-24.4-20c-0.4-0.5-0.6-1.3-1.3-1.1c-0.8,0.1-0.9,1-1.1,1.6
		c-2.7,7.6-6.9,14-12.9,19.6c-9.5,8.8-26,8.6-34.7,0c-6.3-6.2-8.6-13.4-7.1-21.9c0.3-1.4-0.3-1.5-1.4-1.8c-3.3-0.6-6.7-0.9-10-1.9
		c-10.4-3-17.6-12-17.3-22.7c0.3-10,5.1-17.9,12.5-24.3c1.3-1.1,2.9-2,4.3-3c0.5-0.4,1.6-0.4,1-1.4c-0.5-0.8-1.3-0.4-1.9,0
		c-3.2,2-6.1,4.2-8.6,6.9c-5.4,5.9-8.7,12.8-9.1,20.8c-0.6,11.2,5.9,20.7,16.6,24.5c3.3,1.1,6.6,2.1,10,2.1c1.6,0,2.1,0.8,1.8,2
		c-0.9,3.3-0.3,6.4,0.5,9.6c0.4,1.4,0.3,2.1-1.6,2.1c-15.8-0.4-31.1-2.5-45.2-10.1c-10.6-5.7-18.1-13.9-20.8-26
		c-0.9-4,1.1-7.3,2.8-10.4C113.2,240.5,113.8,237.7,122.4,234.4z M289.9,150.7c0.3-2.8-0.3-5.6-0.8-8.1
		c-3.3-14.7-14.7-22.5-28.7-22.6c-0.6,0-1.9-0.5-1.9,0.6c0,1,1.1,0.9,1.9,0.9c0.3,0,0.5,0,0.8,0c16.9,0.9,26.4,11.6,27,27.3
		c0.4,8.6-1.4,16.7-5.1,24.5c-3.5,7.6-8.1,14.4-15.3,19c-3.9,2.5-8.1,3.8-12.9,3.2c-2.9-0.4-5.7-1.3-8.1-2.8c-0.5-0.3-0.9-0.5-1.4,0
		c-0.5,0.6-0.1,0.9,0.4,1.3c3.7,2.3,7.7,3.7,12,3.4c6.1-0.4,11.2-3.2,15.5-7.3C284.5,179.3,289.2,165.8,289.9,150.7z"/>
	<path class="st0" d="M289.9,151.5c-0.8,15.2-5.4,28.7-16.6,39.4c-4.4,4.2-9.5,7.1-15.5,7.3c-4.3,0.3-8.3-1.1-12-3.4
		c-0.5-0.3-0.9-0.6-0.4-1.3c0.5-0.5,0.9-0.3,1.4,0c2.5,1.5,5.2,2.4,8.1,2.8c4.8,0.6,9-0.8,12.9-3.2c7.2-4.5,11.7-11.4,15.3-19
		c3.7-7.7,5.4-15.9,5.1-24.5c-0.6-15.7-10.1-26.5-27-27.3c-0.3,0-0.5,0-0.8,0c-0.8,0-1.9,0.1-1.9-0.9c0-1.1,1.3-0.6,1.9-0.6
		c14,0.1,25.4,8,28.7,22.6C289.7,146.1,290.2,148.8,289.9,151.5z"/>
</g>
</svg>
