<?xml version="1.0" encoding="utf-8"?>
<!-- Generator: Adobe Illustrator 21.1.0, SVG Export Plug-In . SVG Version: 6.00 Build 0)  -->
<svg version="1.1" id="Capa_1" xmlns="http://www.w3.org/2000/svg" xmlns:xlink="http://www.w3.org/1999/xlink" x="0px" y="0px"
	 viewBox="0 0 612 792" style="enable-background:new 0 0 612 792;" xml:space="preserve">
<style type="text/css">
	.st0{fill:#354433;}
	.st1{fill:#8E6D3A;}
	.st2{fill:#97B263;}
</style>
<path class="st0" d="M273.1,235.1c4.5,0,8.9,0,13.4,0c3.7,1,7.5,1.3,11.3,2.1c2.5,0.7,5,1.5,7.5,2.2c2.6,1.1,5.2,2.2,7.8,3.4
	c0.4,0.4,0.9,0.7,1.5,0.7c2.5,1.6,5,3.3,7.5,4.9c1.3,1.1,2.5,2.3,3.8,3.4c1.5,1.9,3,3.9,4.6,5.8c0.5,1,1.1,2,1.6,3.1
	c0.5,1.4,0.9,2.7,1.4,4.1c0.1,0.1,0.3,0.3,0.4,0.3c4.5-0.2,8.9,0.3,13.3,0.9c2.8,0.7,5.6,1.4,8.3,2.1c0.5,0.4,1,0.5,1.6,0.5
	c2.3,0.9,4.5,1.7,6.8,2.6c2.8,1.4,5.6,2.8,8.4,4.1c0.9,0.5,1.7,1,2.6,1.6c1.9,1.3,3.8,2.6,5.7,3.9c4.7,3.8,9,8,12.6,12.8
	c1.4,2.4,2.8,4.8,4.1,7.2c0.2,0.4,0.3,0.8,0.5,1.1c0.8,2.8,1.6,5.6,2.5,8.4c0.2,2.8,0.3,5.6,0.5,8.4c-0.4,2.8-0.8,5.6-1.2,8.4
	c-1.5,5.7-4,11.1-6.8,16.3c-2,3.1-4,6.1-6,9.2c-1.7,2.7-3.9,5-5.2,7.9c-1,1.1-1,2.3-0.3,3.6c0.9,1.6,1.8,3.2,2.7,4.8
	c3,5.8,5.6,11.7,7.1,18.1c0.2,1.8,0.4,3.5,0.7,5.3c-0.1,0.6-0.2,1.2,0.2,1.7l0,0c-0.2,3.2-0.5,6.4-0.7,9.5c-0.7,2.4-1.3,4.7-2,7.1
	c-1.3,2.8-2.5,5.6-3.8,8.4c-5.3,9-11.7,17-21.5,21.5c-2.2,0.8-4.4,1.6-6.8,1.9c-1,0.1-1.4,0.7-1.6,1.6c-2.3,3.1-4.8,6-7.8,8.4
	c-0.2,0.1-0.3,0.2-0.5,0.4c-2.6,1.6-5.4,2.9-8.3,3.8c-2.8,0.5-5.6,0.6-8.4,0.5c-2.9-0.4-5.6-1.3-8.3-2.2c-1.3-0.7-2.5-1.3-3.8-2
	c-4.6-3-8.8-6.4-12.5-10.5c-2.8-3.1-2.3-3.8-4.5,1c-2.2,4.7-5.1,8.8-9.2,12.1c-1.8,1.4-3.9,2.2-5.6,3.7c-0.3,0-0.6-0.1-0.8,0
	c-8.1,2.9-15.4,1.4-22.1-3.9c-0.9-0.9-1.7-1.9-2.6-2.8c-1.3-2.2-2.2-5.2-5.9-4.1c-2.8-0.2-5.6-0.3-8.3-0.5c-2.8-0.4-5.6-0.8-8.4-1.2
	c-2.8-0.7-5.6-1.4-8.4-2.1c-0.5-0.4-1-0.5-1.6-0.5c-2.1-0.9-4.2-1.7-6.3-2.6c-3-1.7-6-3.4-8.8-5.5c-0.1-0.1-0.3-0.2-0.4-0.3
	c-5.3-4.7-8.9-10.4-10.4-17.3c-0.7-2.7,0.9-4.9,1.6-7.3c0.5-0.5,0.7-1.1,0.8-1.7c1.6-2.5,3.1-5,5.5-7l0,0l0,0c0.5-0.2,1.2-0.5,0.1-1
	c-1.9-0.8-3.8-1.7-5.6-2.5c-5.5-3.4-9.9-7.9-13.4-13.4c-1.1-2.3-2.2-4.5-3.3-6.8c0-0.6-0.2-1.1-0.5-1.6c-0.8-3.1-1.6-6.2-2.4-9.3
	c-0.3-2.5-0.6-5-0.9-7.4c0-2.8,0-5.6,0-8.4c0.2-2.2,0.4-4.4,0.6-6.5c0.6-3.4,1.2-6.8,1.8-10.2c0.4-1.4,0.8-2.8,1.3-4.2
	c1.7-4.8,4.9-8.6,8-12.5c0.2-0.2,0.3-0.3,0.5-0.5c2.8-2.6,5.6-5.3,8.3-7.9c5.4-4.1,10.8-8.1,16.7-11.4c1.1-0.2,1.4-0.9,1.2-1.9
	c-0.8-6.7-0.6-13.4,0.8-20.1c1-2.8,1.9-5.6,2.9-8.3c1.3-2.4,2.6-4.7,3.9-7.1c0.2-0.2,0.3-0.5,0.5-0.7c2.3-3.1,4.8-6,7.5-8.8
	c5.1-4.6,10.7-8.4,16.6-11.7c2.8-1,5.5-2.1,8.3-3.1C266.7,236.4,269.9,235.7,273.1,235.1z M215.8,401.3c-6.8,2.5-7.3,4.8-9.5,8.9
	c-1.4,2.4-2.9,5-2.2,8.2c2.2,9.6,8.1,16.1,16.5,20.6c11.2,5.9,23.3,7.7,35.8,8c1.5,0,1.6-0.5,1.3-1.7c-0.6-2.5-1.1-5-0.4-7.6
	c0.3-1.1-0.2-1.7-1.4-1.6c-2.7,0-5.3-0.7-7.9-1.7c-8.4-3-13.6-10.6-13.1-19.4c0.4-6.3,2.9-11.8,7.2-16.5c2-2.2,4.3-3.9,6.8-5.5
	c0.5-0.3,1.1-0.7,1.5,0c0.5,0.8-0.4,0.8-0.8,1.1c-1.1,0.8-2.4,1.5-3.4,2.4c-5.9,5-9.7,11.3-9.9,19.2c-0.3,8.5,5.5,15.7,13.7,18
	c2.6,0.8,5.3,1,7.9,1.5c0.9,0.2,1.3,0.3,1.1,1.4c-1.2,6.7,0.6,12.4,5.6,17.3c6.9,6.8,20,7,27.5,0c4.7-4.4,8.1-9.4,10.2-15.5
	c0.2-0.5,0.3-1.2,0.9-1.3c0.5,0,0.7,0.6,1,0.9c5.3,6.7,11.3,12.4,19.3,15.8c4.5,1.9,9.1,2.4,13.9,1.5c6.6-1.2,11.8-4.9,15.6-10.3
	c6.9-9.7,9-20.3,5.5-31.7c-1.7-5.6-5.2-10.1-9.6-13.9c-0.5-0.4-1.6-0.6-0.8-1.5c0.7-0.8,1.2,0.2,1.6,0.6c1.4,1.3,2.8,2.6,4,4
	c5.6,6.3,7.8,13.8,7.7,22.1c-0.1,5.2-1.4,10.1-3.6,14.9c-0.2,0.4-0.7,0.8-0.2,1.3c0.4,0.3,0.8,0,1.2-0.1c7.2-1.9,13-6,17.8-11.6
	c6.4-7.4,11-15.6,13-25.2c1.1-5.1,1.2-10.3,0.3-15.4c-1.3-8.2-5-15.6-9.2-22.6c-1.5-2.5-1.6-4.6,0.1-6.9c0.4-0.6,0.8-1.1,1.2-1.7
	c5.3-7.7,10.7-15.2,14.2-24c4.6-11.6,4.7-23-1.2-34.2c-3.3-6.2-8-11.2-13.4-15.8c-6.6-5.6-14.1-9.6-22.2-12.6
	c-8.1-3-16.5-4.9-25.3-4.3c-1.1,0.1-1.7-0.3-2-1.5c-0.8-3.3-2.3-6.3-4.3-8.9c-4.1-5.3-9.3-9.1-15.2-12c-8.2-4.1-17-6.3-26.1-7.2
	c-8.5-0.9-16.8-0.4-24.9,2.4c-9.7,3.3-17.8,9.3-24.8,16.7c-4.5,4.8-7.7,10.3-10.1,16.4c-2.4,6.2-3,12.8-2.8,19.4
	c0.2,8.6,2.8,16.1,8.6,22.6c6.3,6.9,16.3,9.6,25.1,6.6c2.6-0.9,4.7-2.4,6.6-4.2c0.3-0.3,0.6-1,1.2-0.4c0.5,0.5,0.3,1-0.2,1.5
	c-0.2,0.2-0.6,0.4-0.8,0.6c-4.5,3.9-9.7,5.3-15.6,5c-7.5-0.4-13.4-3.7-18.2-9.3c-3.2-3.7-5.3-8-6.6-12.6c-0.4-1.4-0.8-1.8-2.3-0.9
	c-9.4,5.2-17.7,11.8-24.9,19.7c-3.6,3.9-6.6,8.2-8,13.5c-1.6,6.1-2.5,12.3-2.8,18.6c-0.3,5.8,0,11.5,1.3,17.2
	c1.8,8.2,4.9,15.8,10.7,22C202.6,396.5,208.2,400.1,215.8,401.3z"/>
<path class="st1" d="M286.5,458.4c1.7-1.5,3.9-2.3,5.6-3.7c4.1-3.3,7-7.4,9.2-12.1c2.2-4.8,1.7-4.1,4.5-1c3.7,4.1,7.9,7.5,12.5,10.5
	c0,2.6,0,5.3,0,7.9c-0.2,2.8-0.2,5.6,0,8.4c-0.2,2.8-0.2,5.6,0,8.4c0,2.8,0,5.6,0,8.3c0,2.8,0.1,5.6,0.1,8.4c0,1.3,0.1,2.5,0.1,3.8
	c-0.2,0.5-0.1,0.9,0.1,1.3c0,1.1,0.1,2.1,0.1,3.2c0,3.1,0.1,6.2,0.8,9.2c0,0.3,0,0.6,0,0.8c0.7,6.7,3.8,11.3,10.8,12.6
	c1.6,1,3.7,1,5.2,2.4c-1.3,1.6-3.3,1.8-5.2,2.2c-1.8,0.1-3.6,0.2-5.4,0.3c0.5,2.3,0.3,2.6-2,2.9c-0.3,0-0.7,0.1-1,0.2
	c-1.2-0.1-2.5-0.1-3.7-0.2c-0.1,0-0.3,0-0.4,0c-1.4-0.3-2.8-0.6-4.2-0.5c-1-0.6-1.6-0.3-2.1,0.7c-0.6,1.1-1.4,2-2.5,2.7
	c-3.5,0.1-6.5-1.5-9.6-2.9c-0.7-0.3-1.4-0.6-2.1-0.9c-1.2-0.6-2.1-2.3-3.7-1.8c-1.7,0.5-3.5,0.9-5.2,1.3c-2.6,0.2-5.2,0.4-7.8,0.5
	c-0.3-0.4-0.6-1-0.5-1.5c0.2-1.5-0.6-1.5-1.8-1.4c-2.2,0.2-4.4,0.2-6.5-0.4c-0.1-0.4-0.2-0.8-0.3-1.2c0.2-0.3,0.5-0.6,0.7-0.9
	c2.1-1.4,4.1-3.1,6.4-4.2c4.7-2.3,6.5-5.9,6.2-10.9c0-0.1,0-0.1,0-0.2c0.4-3,0.7-6,0.6-9c0.1-1.5,0.1-2.9,0.2-4.4
	c0.4-0.7,0.3-1.5,0.2-2.3c0-0.6,0-1.1,0-1.7c0-2.8,0.1-5.6,0.1-8.4c0.2-0.9,0.3-1.8,0.1-2.7c0-0.2,0-0.4,0-0.6
	c0.3-1.7,0.2-3.4,0.1-5c0-2.8,0-5.6,0-8.4c0-2.9,0-5.8,0-8.7C286.4,459.2,286.5,458.8,286.5,458.4z"/>
<path class="st2" d="M215.8,400.6c-7.5-1.2-13.2-4.8-17.9-9.8c-5.9-6.2-9-13.8-10.7-22c-1.2-5.7-1.6-11.4-1.3-17.2
	c0.3-6.3,1.2-12.5,2.8-18.6c1.4-5.3,4.4-9.6,8-13.5c7.2-7.9,15.5-14.5,24.9-19.7c1.5-0.8,1.9-0.4,2.3,0.9c1.4,4.6,3.4,8.9,6.6,12.6
	c4.8,5.5,10.7,8.8,18.2,9.3c5.9,0.3,11.1-1.2,15.6-5c0.3-0.2,0.6-0.4,0.8-0.6c0.4-0.4,0.7-1,0.2-1.5c-0.6-0.5-0.9,0.2-1.2,0.4
	c-1.9,1.9-4,3.4-6.6,4.2c-8.8,3-18.8,0.3-25.1-6.6c-5.9-6.4-8.4-14-8.6-22.6c-0.2-6.7,0.4-13.2,2.8-19.4c2.3-6.1,5.5-11.6,10.1-16.4
	c7-7.4,15.1-13.4,24.8-16.7c8-2.8,16.4-3.3,24.9-2.4c9.1,0.9,17.9,3.1,26.1,7.2c5.9,2.9,11.1,6.8,15.2,12c2.1,2.7,3.5,5.7,4.3,8.9
	c0.3,1.3,0.9,1.6,2,1.5c8.8-0.5,17.2,1.3,25.3,4.3c8,3,15.6,7,22.2,12.6c5.3,4.5,10.1,9.5,13.4,15.8c5.9,11.2,5.8,22.6,1.2,34.2
	c-3.5,8.8-8.9,16.3-14.2,24c-0.4,0.6-0.8,1.2-1.2,1.7c-1.6,2.3-1.5,4.4-0.1,6.9c4.2,7.1,7.9,14.4,9.2,22.6
	c0.8,5.2,0.8,10.3-0.3,15.4c-2,9.6-6.7,17.8-13,25.2c-4.9,5.6-10.6,9.7-17.8,11.6c-0.4,0.1-0.8,0.4-1.2,0.1c-0.5-0.5,0-0.9,0.2-1.3
	c2.2-4.7,3.5-9.7,3.6-14.9c0.2-8.2-2.1-15.8-7.7-22.1c-1.2-1.4-2.6-2.7-4-4c-0.4-0.4-0.9-1.4-1.6-0.6c-0.8,0.9,0.3,1.1,0.8,1.5
	c4.4,3.8,7.9,8.3,9.6,13.9c3.5,11.5,1.4,22.1-5.5,31.7c-3.9,5.4-9,9.1-15.6,10.3c-4.7,0.8-9.4,0.4-13.9-1.5c-8-3.4-14-9.1-19.3-15.8
	c-0.3-0.4-0.5-1-1-0.9c-0.6,0.1-0.7,0.8-0.9,1.3c-2.1,6-5.5,11.1-10.2,15.5c-7.5,7-20.6,6.8-27.5,0c-5-4.9-6.8-10.6-5.6-17.3
	c0.2-1.1-0.2-1.2-1.1-1.4c-2.6-0.5-5.3-0.7-7.9-1.5c-8.2-2.4-13.9-9.5-13.7-18c0.2-7.9,4-14.2,9.9-19.2c1-0.9,2.3-1.6,3.4-2.4
	c0.4-0.3,1.3-0.3,0.8-1.1c-0.4-0.6-1-0.3-1.5,0c-2.5,1.6-4.8,3.3-6.8,5.5c-4.3,4.7-6.9,10.1-7.2,16.5c-0.5,8.9,4.7,16.4,13.1,19.4
	c2.6,0.9,5.2,1.7,7.9,1.7c1.3,0,1.7,0.6,1.4,1.6c-0.7,2.6-0.2,5.1,0.4,7.6c0.3,1.1,0.2,1.7-1.3,1.7c-12.5-0.3-24.6-2-35.8-8
	c-8.4-4.5-14.3-11-16.5-20.6c-0.7-3.2,0.9-5.8,2.2-8.2C208.5,405.4,209,403.2,215.8,400.6z M348.4,334.3c0.2-2.2-0.2-4.4-0.6-6.4
	c-2.6-11.6-11.6-17.8-22.7-17.9c-0.5,0-1.5-0.4-1.5,0.5c0,0.8,0.9,0.7,1.5,0.7c0.2,0,0.4,0,0.6,0c13.4,0.7,20.9,9.2,21.4,21.6
	c0.3,6.8-1.1,13.2-4,19.4c-2.8,6-6.4,11.4-12.1,15c-3.1,2-6.4,3-10.2,2.5c-2.3-0.3-4.5-1-6.4-2.2c-0.4-0.2-0.7-0.4-1.1,0
	c-0.4,0.5-0.1,0.7,0.3,1c2.9,1.8,6.1,2.9,9.5,2.7c4.8-0.3,8.9-2.5,12.3-5.8C344.1,357,347.8,346.3,348.4,334.3z"/>
<path class="st0" d="M348.4,335c-0.6,12-4.3,22.7-13.1,31.2c-3.5,3.3-7.5,5.6-12.3,5.8c-3.4,0.2-6.6-0.9-9.5-2.7
	c-0.4-0.2-0.7-0.5-0.3-1c0.4-0.4,0.7-0.2,1.1,0c2,1.2,4.1,1.9,6.4,2.2c3.8,0.5,7.1-0.6,10.2-2.5c5.7-3.6,9.3-9,12.1-15
	c2.9-6.1,4.3-12.6,4-19.4c-0.5-12.4-8-21-21.4-21.6c-0.2,0-0.4,0-0.6,0c-0.6,0-1.5,0.1-1.5-0.7c0-0.9,1-0.5,1.5-0.5
	c11.1,0.1,20.1,6.3,22.7,17.9C348.2,330.7,348.6,332.8,348.4,335z"/>
</svg>
