<?xml version="1.0" encoding="utf-8"?>
<!-- Generator: Adobe Illustrator 21.1.0, SVG Export Plug-In . SVG Version: 6.00 Build 0)  -->
<svg version="1.1" id="Capa_1" xmlns="http://www.w3.org/2000/svg" xmlns:xlink="http://www.w3.org/1999/xlink" x="0px" y="0px"
	 viewBox="0 0 612 792" style="enable-background:new 0 0 612 792;" xml:space="preserve">
<style type="text/css">
	.st0{fill:#3F3424;}
	.st1{fill:#889B63;}
	.st2{fill:#FBFBFA;}
</style>
<g>
	<path class="st0" d="M252.2,279.6c5,0.8,10.3,1.7,15.7,2.6c11.9,1.9,23.9,3.9,35.8,5.9c5.6,0.9,11.3,1.9,16.9,2.9
		c1.8,0.3,2.8,0.2,3.5-1.9c2.4-7.4,5.3-14.7,8.3-21.9c1.5-3.4,3.9-4.3,7.2-2.6c16.5,8.9,33,17.7,49.5,26.6
		c10,5.4,20.1,10.8,30.1,16.2c5.6,3,11.3,6,16.9,9c2.9,1.6,3.7,4.1,1.8,6.9c-4.7,6.8-9.1,13.7-13.1,20.9c-7.1,13-13,26.5-17.5,40.7
		c-4.5,14-7.6,28.2-9.3,42.7c-2.1,17.4-2.2,34.8-0.3,52.3c0.8,7.1,1.9,14.2,3.3,21.2c0.7,3.3-0.3,5-3.4,6.1
		c-6.8,2.3-13.5,4.5-20.3,6.8c-9.3,3.1-18.5,6.2-27.8,9.3c-2.8,0.9-5.6,1.9-8.4,2.8c-1.3,0.4-2.5,1-3.7,1.8
		c-2.3,1.7-4.4,1.5-6.4-0.6c-1.4-1.4-2.9-2.9-4-4.5c-2.1-2.9-5.1-4.6-8.1-6.3c-8.7-5.1-17.1-10.8-25.2-16.8
		c-13.5-10-26.1-21-37.8-33c-15.8-16.2-29.9-33.9-42-53c-8.3-13.1-15.7-26.6-22.1-40.8c-7.2-16-13.1-32.5-17.8-49.5
		c-1-3.5,0.4-5.8,4-6.4c11.5-2,23.1-4,34.7-6c10.7-1.9,21.5-3.8,32.2-5.7c1.2-0.2,1.1-0.9,1.2-1.7c0.2-6.6,0.3-13.2,0.9-19.8
		C247.4,281.1,249.2,279.5,252.2,279.6z M271.6,315.3c0.1,0.1,0.2,0.2,0.3,0.4c0,1-0.6,2.3,0.2,2.8c0.9,0.6,2.4,0.7,3.4,0.3
		c0.8-0.4,0.5-1.7,0.2-2.4c-0.4-1.3-0.3-1.9,1.2-1.9c0.4,0,0.8,0.1,0.8-0.5c0-0.5,0.2-1.3-0.1-1.4c-1.9-0.3-1.4-1.9-1.8-3
		c-0.6-1.5-1.6-2.6-3.3-2.7c-1.8-0.1-2.7,1.1-3.3,2.5c-0.3,0.7-0.4,1.4-0.7,2.1c-0.2,0.6-0.2,1.4-0.9,1.7c-0.2,0.1-0.5,0-0.6-0.3
		c-0.4-0.8-0.2-1.6,0.1-2.4c0.2-0.5,0.6-0.7,1.1-1c1.1-0.6,0.6-1.7,0.6-2.5c0-0.9-0.9-0.6-1.5-0.7c-0.5-0.1-1-0.1-1.5-0.2
		c-1-0.2-1.4,0.2-1.3,1.2c0.1,0.5,0,1.1,0.2,1.6c0.3,0.9,0.2,1.8-1.1,2c-0.8,0.1-1.4,1.8-0.8,1.9c2,0.3,1.3,2.1,1.8,3.1
		c0.6,1.4,1.5,2.5,3.2,2.6c1.6,0.1,2.5-0.9,3.1-2.2C271.2,316.1,271.4,315.7,271.6,315.3z M299.3,487.1c0.1,0.1,0.2,0.2,0.2,0.2
		c0.2-0.1,0.1-0.3,0-0.4c-1-2.3-2.6-4.3-3.9-6.4c-6.3-10.2-12.2-20.6-17.3-31.5c-0.4-0.9-0.7-1.7-1.9-1.9
		c-7.2-1.1-13.5-4.1-19.2-8.8c-6.7-5.6-11.4-12.3-13.5-20.8c-2.6-10.6,0.7-22.6,10.3-28.7c1.8-1.2,1.9-2.2,1.5-4.1
		c-3.3-13.2-5.5-26.6-7-40.1c-0.7-6.7-1.3-13.4-1.7-20c-0.1-1.7-0.4-2.1-2.2-1.7c-7.3,1.7-14.6,3.2-21.9,4.8c-4.1,0.9-4,0.9-3.5,5.1
		c1.2,10.6-3,21.7-13,26.9c-1.1,0.5-1.1,1-0.7,2c5.8,14.1,12.5,27.7,20.2,40.8c7.9,13.4,16.7,26.1,26.5,38.1
		c4.3,5.3,8.7,10.5,13.4,15.4c6.9,7.3,14,14.4,21.6,21C291.1,480.5,295,484.1,299.3,487.1z M311,391.5c0.1,5.8,0,11.6,0.3,17.5
		c0.5,9.3,1.2,18.7,2.5,27.9c1.6,12.2,4,24.4,7.1,36.3c4.2,16.3,9.7,32.2,16.3,47.6c0.5,1.1,1,1.5,2.3,1c6.8-2.4,13.7-4.6,20.5-6.9
		c11.7-3.9,23.4-7.9,35.1-11.8c1.5-0.5,1.8-1.1,1.5-2.7c-1.8-8.6-3-17.3-3.7-26c-0.8-10.1-1-20.2-0.6-30.3
		c0.4-10.2,1.5-20.3,3.3-30.4c3.2-18.5,8.6-36.3,16.2-53.5c6-13.5,13.1-26.3,21.6-38.3c0.9-1.3,0.8-1.9-0.6-2.6
		c-10.6-5.7-21.2-11.4-31.8-17.1c-13.5-7.2-27-14.4-40.5-21.6c-7.3-3.9-14.6-7.8-21.9-11.8c-1.1-0.6-1.8-0.9-2.4,0.7
		c-3,7.4-5.9,14.9-8.5,22.5c-4.9,14.9-8.8,30-11.6,45.5c-1.5,8.3-2.8,16.7-3.5,25.1C311.7,372.3,310.9,381.9,311,391.5z M289,304.2
		c-2-0.1-2-0.1-2.1,1.2c-0.7,5.3-2.7,10.2-6,14.4c-4.1,5.3-9.2,8.8-16.1,9.2c-1,0.1-1,0.7-1,1.4c0,2.1,0.3,4.3,0.4,6.4
		c0.7,9.3,1.7,18.6,3.2,27.8c2,12.4,4.8,24.7,8.3,36.9c4.7,16.4,10.7,32.2,18.1,47.6c5.6,11.7,11.9,22.9,18.9,33.9
		c1.4,2.2,2.6,3.6,5.4,2.7c1.1-0.3,1.5-0.4,1.1-1.6c-4.4-14.9-7.6-30-9.6-45.4c-0.1-0.8-0.3-1.2-1.2-1.4c-6.9-1.8-12.6-5.7-17-11.2
		c-8.8-11-12.8-23.2-8.1-37.2c3.2-9.4,11.7-16.6,22.2-17.1c1.4-0.1,1.8-0.5,1.9-1.8c0.6-7.9,1.5-15.7,2.6-23.6
		c1.9-12.5,4.4-24.9,7.8-37.2c0.3-1.2,0.1-1.5-1.1-1.6c-2.6-0.2-5.2-0.6-7.8-0.9C302.1,305.8,295.4,305,289,304.2z M332.1,521.6
		c0.1-0.1,0.2-0.1,0.3-0.2c-1.6-3.9-3.2-7.7-4.6-11.6c-0.7-1.8-2-2.7-3.5-3.4c-2.6-1.2-4.4-3.1-4.7-6c-0.1-0.7-0.5-1.1-0.8-1.7
		c-1.9-2.7-1.6-4.7,1-6.9c0.2-0.2,0.5-0.4,0.8-0.5c0.3-0.2,0.6-0.5,0.5-0.9c-0.1-0.4-0.5-0.3-0.8-0.3c-1.2-0.1-2.4-0.1-3.5,0.3
		c-2.8,0.8-4.3,0.3-5.9-2.2c-2.8-4.3-5.5-8.6-8.1-12.9c-8.9-14.9-16.5-30.6-22.7-46.9c-4.7-12.2-8.7-24.7-11.8-37.5
		c-2.3-9.3-4.1-18.6-5.5-28c-1.2-7.9-2.1-15.8-2.6-23.7c-0.2-2.5-0.2-5-0.6-7.5c-0.8-4.3,0.7-6.1,4.9-6.9c1.8-0.3,3.6-0.5,5.2-1.6
		c-4.8-0.4-5.1-0.6-7.1-2.4c-1.1-1.1-1.5-2.6-2.3-3.8c-2.7-3.8-2.8-6-0.4-9.6c0.2-0.3,0.3-0.7,0.3-1c0.5-3.9,2.4-5.3,6.3-4.8
		c2,0.3,3.9,0.7,6,0.7c3.5-0.1,5.8,1.7,7.3,4.7c0.2,0.4,0.4,0.9,0.6,1.4c0.2,0.3,0.5,0.6,0.9,0.6c0.5-0.1,0.4-0.6,0.5-0.9
		c0.3-1.2,0.5-2.5,0.7-3.7c0.7-3.9,2-5.2,6-4.7c9.8,1.1,19.6,2,29.3,3.7c1.1,0.2,1.9,0.1,2.1-1.3c0.3-1.7,0.9-3.3,1.5-4.8
		c0.6-1.5,0-1.8-1.3-2.1c-10.8-1.7-21.5-3.5-32.3-5.2c-11.4-1.9-22.9-3.8-34.3-5.7c-1.2-0.2-1.9,0-1.9,1.5
		c-0.2,4.7-0.6,9.4-0.7,14.1c-0.3,14.2,0.3,28.5,1.8,42.6c0.7,6.4,1.6,12.7,2.7,19.1c1.6,9.8,3.7,19.5,6.2,29
		c3.3,12.2,7.2,24.2,11.8,35.9c5.2,13.2,11.2,25.9,18.1,38.2c9.3,16.7,20.1,32.4,32.3,47.1C326.5,515.1,329.3,518.4,332.1,521.6z
		 M214.7,335.4c0.3-1.1-0.2-2.1-0.2-3.2c-0.1-1.1-0.4-2.2-0.4-3.4c-0.1-2.4,1.2-4.1,3.5-4.6c4.1-0.9,8.2-1.8,12.3-2.7
		c5-1.1,10-2.2,15.1-3.3c1.3-0.3,1.6-0.9,1.4-2.1c-0.2-1.4-0.3-2.9-0.2-4.3c0.1-1.7-0.4-2.2-2.1-1.8c-1.9,0.5-3.8,0.7-5.7,1
		c-11.2,1.9-22.3,3.9-33.5,5.9c-8.1,1.4-16.3,2.9-24.4,4.2c-1.6,0.3-1.9,0.8-1.5,2.3c2,7.4,4.3,14.7,6.9,21.9
		c6.4,18,14.3,35.3,23.7,52c5.1,9,10.6,17.8,16.5,26.3c5.7,8.1,11.8,16.1,18.4,23.6c4.1,4.7,8.2,9.5,12.5,14.1
		c4.1,4.3,8.5,8.3,12.9,12.4c13.3,12.5,27.7,23.5,42.8,33.7c0.3,0.2,0.7,0.7,1.1,0.2c0.3-0.4-0.2-0.6-0.4-0.9
		c-2-3.4-4.7-6.3-6.9-9.6c-0.4-0.6-0.8-0.9-1.5-0.9c-1.4,0.1-2.6-0.7-3.6-1.5c-5.9-4.6-11.7-9.1-17.3-14.2c-9.7-8.8-19.2-18-27.7-28
		c-6.4-7.5-12.8-14.9-18.5-23c-7.8-10.9-15-22.1-21.4-33.9c-5.8-10.8-11.1-21.8-15.6-33.2c-1.1-2.9-0.3-5,2.5-6.3
		c1.6-0.8,3.1-1.7,4.7-3.1c-5.5,0.9-7.2,0.5-9.7-2c-0.3-0.4-0.7-0.8-1.1-1c-3.6-2.4-4.6-4.7-3.6-8.8c0.2-0.6,0-1.2-0.1-1.9
		c-0.6-2.9,0.8-5,3.6-5.6c2-0.4,4-0.6,5.8-1.3c3.9-1.7,7.1-0.8,9.9,2.2C213.5,335,213.9,335.5,214.7,335.4z M306.3,397
		c0,0-0.1,0-0.1,0c0,1.2,0,2.5,0,3.7c0,1.9,0,3.8-0.1,5.6c0,0.7-0.2,1.7-1.1,1.9c-1.1,0.3-1.6-0.5-2-1.3c-1.4-2.8-1.7-6,0.6-8.1
		c2.1-1.9,1.3-3.6,1-5.6c-0.1-0.4-0.2-0.8-0.3-1.3c-0.2-1.7-0.7-2.8-2.8-2c-1.3,0.5-2.7,0.4-4.1,0.6c-4.5,0.7-4.6,0.7-3.2,5.2
		c0.4,1.2-0.4,3.5,2.2,3.4c0,0,0.1,0.6,0.1,0.9c-0.1,1.3-0.2,2.5-0.2,3.8c0,0.8-0.4,0.9-1,1.1c-3.1,0.9-3.1,0.9-2.2,4.1
		c0.1,0.2,0.1,0.4,0.1,0.6c0.1,1.8,1,2.3,2.6,1.6c1.4-0.6,2-0.1,2.5,1.2c0.5,1.3,1.1,2.6,1.9,3.9c1.4,2.5,3.3,4.5,6.1,5.6
		c1.1,0.4,1.6,0.3,1.5-1.1c-0.2-1.4-0.3-2.7-0.3-4.1C306.9,410.1,306.6,403.6,306.3,397z M306.8,380.4c0-0.7,0-0.9,0-1.2
		c0.1-3.4,0-3.4-3.3-2.8c-9.4,1.8-16.3,9.6-17.5,19.2c-0.9,7.3,0.6,14.1,3.9,20.5c3.3,6.4,8,11.5,14.5,14.8c1.2,0.6,2.6,1.9,3.6,1.1
		c1-0.8,0.2-2.6,0.1-3.9c0-0.6,0-1.4-1-1.5c-5.8-0.8-9.3-4.6-11.8-9.5c-0.5-1-1.1-1.3-2.2-1.3c-1.7,0-2.9-0.9-3.5-2.5
		c-0.8-2-1.4-4-2-6.1c-0.8-2.6-0.2-4.1,2.1-5.6c0.5-0.3,1.2-0.6,0.8-1.2c-1.4-2.3-1-5.1-1.8-7.6c-0.9-3.1,0.9-5.6,4.1-6
		c1.9-0.2,3.7-0.6,5.6-0.8c2.5-0.2,4.9-1.3,7.4-0.3c0.9,0.4,0.6-0.5,0.7-0.9C306.7,383.2,306.8,381.6,306.8,380.4z M260.6,432.4
		c-1.8,0.1-3-0.4-3.9-1.7c-1.2-1.7-2.5-3.4-3.7-5.2c-1.4-2-1.3-3.7,0.2-5.5c0.7-0.8,0.6-1.3,0.1-2.1c-1.4-2-2.7-4.1-4-6.2
		c-1.5-2.5-0.9-5,1.6-6.4c2.4-1.4,4.9-2.7,7.5-4c1-0.5,1.3-1.1,1-2.2c-0.6-1.9-1.2-3.8-1.7-5.8c-0.2-1-0.6-1.1-1.4-0.6
		c-0.4,0.3-0.8,0.6-1.2,0.9c-7.3,6.2-9.3,15.8-6.3,24.9c3.4,10.4,10.6,17.6,20.5,22.1c1.5,0.7,3,1.3,4.6,1.5c0.4,0,0.9,0.3,1-0.4
		c0.1-1-1.7-3.7-2.7-4c-2.6-0.7-4.9-2-6.9-3.7C263.7,432.8,262.4,431.3,260.6,432.4z M270.8,432.5c-1.3-3.4-2.5-6.4-3.6-9.4
		c-2.1-5.4-4-10.9-5.7-16.5c-0.4-1.3-0.9-1.5-2.1-0.8c-1.4,0.8-2.9,1.5-4.3,2.3c-2.1,1.1-2.2,1.1-1,3.1c0.8,1.3,1.6,2.5,2.4,3.8
		c0.2,0.3,0.4,1,0.9,0.7c1.4-0.7,1.4,0.3,1.5,1.2c0.2,0.9,0.4,1.9,0.8,2.7c0.4,0.9,0.2,1.3-0.6,1.8c-2.7,1.8-2.7,1.8-0.7,4.5
		c0.2,0.2,0.4,0.4,0.5,0.6c0.7,1.6,1.7,1.7,2.9,0.6c1.1-0.9,1.8-0.9,2.8,0.4C266.3,429.4,268.1,431.1,270.8,432.5z M203.6,341
		C203.6,341,203.6,341,203.6,341c0,0.6,0.1,1.3,0,1.9c0,0.4,0.1,0.9-0.5,1c-0.6,0.1-0.9-0.3-1.1-0.8c-0.4-1-0.2-1.9,0.5-2.8
		c0.6-0.7,0.2-2.9-0.4-2.9c-1.3-0.1-2.8,0-3.7,0.9c-0.6,0.5,0.2,1.7,0.7,2.5c0.7,1,1,1.9-0.5,2.4c-0.6,0.2-0.7,0.5-0.5,1
		c0.2,0.5,0,1.4,0.9,1.2c1.2-0.3,1.4,0.5,1.9,1.3c0.8,1.3,1.7,2.5,3.5,2.5c2.1,0,3.6-1.9,3.4-4.5c-0.1-0.9-0.2-1.9-0.2-2.8
		c0-0.4,0.1-0.8,0.6-0.9c0.4-0.1,0.7,0.3,0.8,0.7c0.4,1,0.4,1.9-0.3,2.8c-0.9,1.2-0.1,2.6,0.6,2.8c1,0.3,2.4-0.2,3.3-0.8
		c0.8-0.6-0.1-1.6-0.5-2.3c-0.6-1.1-1.1-1.9,0.6-2.3c0.4-0.1,0.6-0.4,0.5-0.8c-0.2-0.5-0.2-1.3-0.6-1.2c-1.8,0.7-1.7-0.9-2.3-1.7
		c-1.1-1.6-2.8-2.4-4.3-1.9c-2,0.6-2.3,2.2-2.3,4C203.5,340.5,203.5,340.7,203.6,341z"/>
	<path class="st1" d="M311,391.5c-0.1-9.6,0.7-19.2,1.6-28.8c0.8-8.4,2-16.8,3.5-25.1c2.8-15.4,6.7-30.6,11.6-45.5
		c2.5-7.6,5.4-15.1,8.5-22.5c0.6-1.5,1.4-1.2,2.4-0.7c7.3,3.9,14.6,7.9,21.9,11.8c13.5,7.2,27,14.4,40.5,21.6
		c10.6,5.7,21.2,11.4,31.8,17.1c1.4,0.8,1.5,1.3,0.6,2.6c-8.5,12-15.6,24.8-21.6,38.3c-7.6,17.2-13,35-16.2,53.5
		c-1.8,10-2.8,20.2-3.3,30.4c-0.4,10.1-0.2,20.2,0.6,30.3c0.7,8.7,1.9,17.4,3.7,26c0.3,1.5,0,2.2-1.5,2.7
		c-11.7,3.9-23.4,7.8-35.1,11.8c-6.8,2.3-13.7,4.6-20.5,6.9c-1.3,0.5-1.8,0.1-2.3-1c-6.6-15.5-12.2-31.3-16.3-47.6
		c-3.1-12-5.4-24.1-7.1-36.3c-1.2-9.3-2-18.6-2.5-27.9C311,403.1,311.1,397.3,311,391.5z M382,476.8c0.8-0.7,1.5-0.9,2.2-1
		c3.4-0.8,4.6-2.3,4.3-5.9c-0.3-3.9-0.6-7.9-0.8-11.8c-0.7-13.2-0.2-26.5,1.4-39.6c1.7-13.7,4.5-27.2,8.5-40.4
		c3.2-10.6,7.1-20.9,11.8-30.9c1.3-2.9,2.2-5.5-0.8-7.9c0.8-0.3,1.6-0.4,2.1-0.8c1.3-1.1,2.9-2,4.2-3.1c1.5-1.2,2.7-3.1,2.3-5.1
		c-0.5-2.4-0.8-4.8-2.2-6.9c-0.5-0.8-1.2-1.6-2-2c-3.1-1.5-6.2-3-9.4-4.3c-1.8-0.7-3.9,0-4.8,1.6c-0.7,1.1-1.6,1.4-2.7,1.7
		c0.1-2.1,0.8-3.8,1.6-5.5c1.2-2.6,0.3-4.9-2.2-6.1c-1.3-0.6-2.6-1.3-3.9-1.9c-8.5-4.1-16.9-8.3-25.4-12.3c-2.9-1.4-5.1-0.4-6.6,2.5
		c-0.8,1.5-1.4,3.2-2.8,4.5c-0.8-0.9-0.8-1.9-0.9-2.9c-0.4-2.8-1.7-5-4.4-6.1c-2.5-1-4.8-2.2-7.2-3.3c-2.8-1.3-5.1-0.5-6.5,2.2
		c-0.4,0.7-0.8,1.3-1.5,1.8c-2.5,1.7-3.5,5.6-2.3,8.4c0.2,0.3,0.3,0.7,0.4,1.1c0.2,4.2,2.3,7,6.4,8.3c-1,0.1-1.9,0.1-2.8,0.1
		c-1.1,0-2.2-0.3-3.3-0.5c-2.2-0.5-4.5,0.7-5.1,2.7c-0.4,1.4-0.8,2.8-1.2,4.1c-2.6,9.5-4.8,19.2-6.6,28.9
		c-2.1,11.5-3.5,23.1-4.3,34.7c-0.6,8.4-0.7,16.9-0.6,25.4c0.1,14.5,1.5,28.8,3.6,43.1c1.5,10,3.7,20,6,29.8c0.8,3.4,2.7,5,6.1,5.1
		c1.3,0.1,2.8,0.3,3.8,1.7c-0.9,0.2-1.7,0.3-2.5,0.6c-1.8,0.6-3.2,1.8-3.1,3.8c0.1,2.2,0,4.5,0.4,6.6c0.7,3.8,3.5,6.2,6.3,8.5
		c1.2,1,2.9,1.3,4.5,0.7c1.8-0.7,3.7-1.1,5.5-1.9c1.3-0.5,1.6-0.2,2.2,0.7c1.2,1.7,3,2.3,5,1.7c6-1.6,12-3.3,17.9-5
		c3.9-1.1,4.7-2.4,4.2-6.5c1.5,0.7,3,1.4,4.7,0.9c2-0.7,3.9-1.3,5.9-1.9c1.5-0.4,2.4-1.7,2.6-3.2c0.3-3.8,1.6-7.7-1.9-11.1
		C386.3,478.5,384.8,476.9,382,476.8z"/>
	<path class="st1" d="M289,304.2c6.4,0.8,13.2,1.6,19.9,2.4c2.6,0.3,5.2,0.7,7.8,0.9c1.2,0.1,1.5,0.4,1.1,1.6
		c-3.4,12.2-5.9,24.6-7.8,37.2c-1.2,7.8-2.1,15.7-2.6,23.6c-0.1,1.4-0.5,1.8-1.9,1.8c-10.5,0.4-19,7.6-22.2,17.1
		c-4.7,14-0.7,26.2,8.1,37.2c4.4,5.5,10.1,9.4,17,11.2c0.8,0.2,1.1,0.7,1.2,1.4c2,15.4,5.2,30.5,9.6,45.4c0.4,1.2-0.1,1.3-1.1,1.6
		c-2.8,0.9-4-0.5-5.4-2.7c-7-10.9-13.3-22.2-18.9-33.9c-7.3-15.4-13.4-31.2-18.1-47.6c-3.5-12.1-6.2-24.4-8.3-36.9
		c-1.5-9.2-2.6-18.5-3.2-27.8c-0.1-2.1-0.4-4.2-0.4-6.4c0-0.7,0-1.3,1-1.4c6.9-0.4,12-4,16.1-9.2c3.3-4.2,5.3-9.1,6-14.4
		C287,304.1,287,304.1,289,304.2z"/>
	<path class="st1" d="M299.3,487.1c-4.3-3.1-8.2-6.6-12.2-10.1c-7.6-6.6-14.7-13.7-21.6-21c-4.7-4.9-9.1-10.1-13.4-15.4
		c-9.8-12.1-18.6-24.8-26.5-38.1c-7.7-13.1-14.4-26.7-20.2-40.8c-0.4-1-0.3-1.5,0.7-2c10.1-5.2,14.3-16.2,13-26.9
		c-0.5-4.2-0.6-4.2,3.5-5.1c7.3-1.6,14.6-3.1,21.9-4.8c1.8-0.4,2.1,0,2.2,1.7c0.4,6.7,0.9,13.4,1.7,20c1.5,13.5,3.8,26.9,7,40.1
		c0.5,1.8,0.4,2.9-1.5,4.1c-9.5,6.1-12.9,18.2-10.3,28.7c2.1,8.5,6.8,15.2,13.5,20.8c5.6,4.7,12,7.7,19.2,8.8c1.1,0.2,1.5,1,1.9,1.9
		c5.1,10.8,11,21.3,17.3,31.5c1.3,2.1,2.9,4.1,3.9,6.4C299.4,487,299.3,487,299.3,487.1z"/>
	<path class="st1" d="M332.1,521.6c-2.8-3.3-5.6-6.5-8.4-9.8c-12.3-14.7-23-30.4-32.3-47.1c-6.9-12.3-12.9-25.1-18.1-38.2
		c-4.6-11.7-8.5-23.7-11.8-35.9c-2.6-9.6-4.6-19.3-6.2-29c-1-6.3-2-12.7-2.7-19.1c-1.5-14.2-2.1-28.4-1.8-42.6
		c0.1-4.7,0.5-9.4,0.7-14.1c0.1-1.4,0.7-1.7,1.9-1.5c11.4,1.9,22.9,3.8,34.3,5.7c10.8,1.8,21.5,3.5,32.3,5.2
		c1.3,0.2,1.9,0.6,1.3,2.1c-0.6,1.6-1.2,3.2-1.5,4.8c-0.3,1.4-1.1,1.5-2.1,1.3c-9.7-1.7-19.5-2.5-29.3-3.7c-4-0.5-5.3,0.8-6,4.7
		c-0.2,1.2-0.4,2.5-0.7,3.7c-0.1,0.3,0,0.8-0.5,0.9c-0.4,0.1-0.7-0.3-0.9-0.6c-0.3-0.4-0.4-0.9-0.6-1.4c-1.5-3-3.9-4.8-7.3-4.7
		c-2,0-4-0.4-6-0.7c-3.9-0.5-5.8,0.8-6.3,4.8c0,0.4-0.1,0.8-0.3,1c-2.5,3.6-2.3,5.8,0.4,9.6c0.9,1.2,1.2,2.7,2.3,3.8
		c2,1.8,2.3,2,7.1,2.4c-1.6,1.1-3.5,1.2-5.2,1.6c-4.3,0.8-5.7,2.6-4.9,6.9c0.4,2.5,0.4,5,0.6,7.5c0.5,7.9,1.4,15.8,2.6,23.7
		c1.4,9.4,3.3,18.8,5.5,28c3.1,12.7,7.1,25.2,11.8,37.5c6.2,16.3,13.8,31.9,22.7,46.9c2.6,4.4,5.3,8.7,8.1,12.9
		c1.6,2.5,3.1,3,5.9,2.2c1.2-0.3,2.4-0.3,3.5-0.3c0.3,0,0.7-0.1,0.8,0.3c0.2,0.4-0.2,0.7-0.5,0.9c-0.3,0.2-0.5,0.3-0.8,0.5
		c-2.6,2.1-2.9,4.1-1,6.9c0.4,0.5,0.7,1,0.8,1.7c0.4,3,2.1,4.8,4.7,6c1.5,0.7,2.8,1.6,3.5,3.4c1.4,3.9,3.1,7.8,4.6,11.6
		C332.4,521.5,332.2,521.6,332.1,521.6z"/>
	<path class="st1" d="M214.7,335.4c-0.8,0.1-1.3-0.3-1.8-0.9c-2.8-3-6-3.8-9.9-2.2c-1.8,0.8-3.9,0.9-5.8,1.3
		c-2.8,0.6-4.2,2.7-3.6,5.6c0.1,0.6,0.2,1.2,0.1,1.9c-1,4.1,0,6.4,3.6,8.8c0.4,0.3,0.7,0.7,1.1,1c2.5,2.5,4.2,2.9,9.7,2
		c-1.6,1.4-3.1,2.3-4.7,3.1c-2.8,1.3-3.7,3.5-2.5,6.3c4.5,11.4,9.8,22.4,15.6,33.2c6.4,11.8,13.6,23,21.4,33.9
		c5.7,8,12.1,15.5,18.5,23c8.5,10,18,19.2,27.7,28c5.5,5,11.4,9.6,17.3,14.2c1,0.8,2.2,1.5,3.6,1.5c0.7,0,1.1,0.3,1.5,0.9
		c2.2,3.3,4.9,6.2,6.9,9.6c0.2,0.3,0.7,0.5,0.4,0.9c-0.4,0.5-0.8,0-1.1-0.2c-15.1-10.1-29.6-21.1-42.8-33.7
		c-4.3-4.1-8.8-8.1-12.9-12.4c-4.3-4.5-8.4-9.3-12.5-14.1c-6.6-7.5-12.6-15.4-18.4-23.6c-6-8.5-11.4-17.3-16.5-26.3
		c-9.4-16.6-17.3-34-23.7-52c-2.6-7.2-4.9-14.5-6.9-21.9c-0.4-1.6-0.1-2.1,1.5-2.3c8.2-1.3,16.3-2.8,24.4-4.2
		c11.2-2,22.3-3.9,33.5-5.9c1.9-0.3,3.9-0.5,5.7-1c1.7-0.4,2.2,0.1,2.1,1.8c-0.1,1.4,0,2.9,0.2,4.3c0.1,1.2-0.2,1.8-1.4,2.1
		c-5,1-10,2.2-15.1,3.3c-4.1,0.9-8.2,1.8-12.3,2.7c-2.3,0.5-3.6,2.2-3.5,4.6c0,1.1,0.3,2.2,0.4,3.4
		C214.6,333.2,215.1,334.3,214.7,335.4z"/>
	<path class="st2" d="M306.3,397c0.3,6.6,0.6,13.2,0.9,19.7c0.1,1.4,0.2,2.8,0.3,4.1c0.2,1.4-0.4,1.5-1.5,1.1
		c-2.8-1.1-4.7-3.1-6.1-5.6c-0.7-1.3-1.4-2.6-1.9-3.9c-0.5-1.3-1.1-1.8-2.5-1.2c-1.6,0.7-2.5,0.2-2.6-1.6c0-0.2-0.1-0.4-0.1-0.6
		c-0.9-3.3-0.9-3.3,2.2-4.1c0.6-0.2,1-0.3,1-1.1c0-1.3,0.1-2.5,0.2-3.8c0-0.3-0.1-0.9-0.1-0.9c-2.6,0.1-1.8-2.2-2.2-3.4
		c-1.4-4.4-1.3-4.5,3.2-5.2c1.4-0.2,2.8-0.1,4.1-0.6c2.1-0.8,2.6,0.3,2.8,2c0.1,0.4,0.2,0.8,0.3,1.3c0.3,1.9,1.1,3.6-1,5.6
		c-2.3,2.1-2,5.2-0.6,8.1c0.4,0.8,1,1.5,2,1.3c1-0.2,1.1-1.2,1.1-1.9c0.1-1.9,0.1-3.8,0.1-5.6c0-1.2,0-2.5,0-3.7
		C306.2,397,306.2,397,306.3,397z"/>
	<path class="st1" d="M306.8,380.4c-0.1,1.2-0.2,2.8-0.3,4.5c0,0.4,0.2,1.3-0.7,0.9c-2.5-1-5,0.1-7.4,0.3c-1.9,0.2-3.7,0.5-5.6,0.8
		c-3.2,0.4-5.1,2.9-4.1,6c0.8,2.5,0.3,5.2,1.8,7.6c0.4,0.7-0.3,0.9-0.8,1.2c-2.3,1.5-2.9,3-2.1,5.6c0.6,2,1.2,4.1,2,6.1
		c0.7,1.7,1.8,2.6,3.5,2.5c1.1,0,1.7,0.4,2.2,1.3c2.5,4.9,6,8.7,11.8,9.5c1,0.1,1,0.9,1,1.5c0.1,1.3,0.9,3.2-0.1,3.9
		c-0.9,0.7-2.4-0.6-3.6-1.1c-6.5-3.3-11.2-8.5-14.5-14.8c-3.3-6.4-4.9-13.2-3.9-20.5c1.2-9.6,8.1-17.4,17.5-19.2
		c3.3-0.6,3.4-0.6,3.3,2.8C306.8,379.4,306.8,379.7,306.8,380.4z"/>
	<path class="st1" d="M260.6,432.4c1.8-1.1,3.1,0.4,4.5,1.6c2,1.7,4.3,3,6.9,3.7c1,0.3,2.8,3,2.7,4c-0.1,0.7-0.6,0.5-1,0.4
		c-1.6-0.2-3.2-0.9-4.6-1.5c-9.9-4.5-17.1-11.7-20.5-22.1c-3-9.1-1-18.7,6.3-24.9c0.4-0.3,0.8-0.6,1.2-0.9c0.8-0.6,1.2-0.4,1.4,0.6
		c0.5,1.9,1,3.9,1.7,5.8c0.4,1.1,0.1,1.7-1,2.2c-2.5,1.3-5,2.6-7.5,4c-2.5,1.5-3.1,4-1.6,6.4c1.3,2.1,2.6,4.1,4,6.2
		c0.5,0.8,0.6,1.3-0.1,2.1c-1.5,1.8-1.6,3.5-0.2,5.5c1.2,1.8,2.5,3.4,3.7,5.2C257.6,432,258.8,432.5,260.6,432.4z"/>
	<path class="st2" d="M270.8,432.5c-2.7-1.4-4.5-3.1-6-5c-1-1.3-1.7-1.3-2.8-0.4c-1.3,1.1-2.2,1-2.9-0.6c-0.1-0.2-0.3-0.4-0.5-0.6
		c-2-2.7-2-2.7,0.7-4.5c0.7-0.5,1-0.9,0.6-1.8c-0.4-0.8-0.6-1.8-0.8-2.7c-0.2-0.9-0.1-1.9-1.5-1.2c-0.5,0.3-0.7-0.4-0.9-0.7
		c-0.8-1.2-1.7-2.5-2.4-3.8c-1.2-2-1.2-2,1-3.1c1.4-0.8,2.9-1.5,4.3-2.3c1.1-0.7,1.7-0.4,2.1,0.8c1.7,5.6,3.6,11.1,5.7,16.5
		C268.3,426.1,269.5,429,270.8,432.5z"/>
	<path class="st2" d="M203.6,341c0-0.3,0-0.5,0-0.8c0-1.8,0.3-3.4,2.3-4c1.5-0.5,3.2,0.3,4.3,1.9c0.6,0.8,0.5,2.4,2.3,1.7
		c0.4-0.2,0.5,0.7,0.6,1.2c0.2,0.4,0,0.8-0.5,0.8c-1.7,0.4-1.2,1.2-0.6,2.3c0.4,0.7,1.3,1.8,0.5,2.3c-0.9,0.6-2.4,1.1-3.3,0.8
		c-0.8-0.2-1.5-1.7-0.6-2.8c0.7-0.9,0.7-1.8,0.3-2.8c-0.1-0.3-0.4-0.7-0.8-0.7c-0.4,0.1-0.6,0.5-0.6,0.9c0,0.9,0.1,1.9,0.2,2.8
		c0.2,2.6-1.2,4.5-3.4,4.5c-1.8,0-2.7-1.3-3.5-2.5c-0.5-0.7-0.7-1.5-1.9-1.3c-0.8,0.2-0.6-0.7-0.9-1.2c-0.2-0.4-0.1-0.8,0.5-1
		c1.5-0.5,1.2-1.4,0.5-2.4c-0.5-0.8-1.3-2-0.7-2.5c0.9-0.8,2.4-0.9,3.7-0.9c0.7,0,1,2.2,0.4,2.9c-0.7,0.9-0.9,1.7-0.5,2.8
		c0.2,0.5,0.5,0.9,1.1,0.8c0.6-0.1,0.5-0.6,0.5-1C203.6,342.2,203.6,341.6,203.6,341C203.6,341,203.6,341,203.6,341z"/>
	<path class="st2" d="M271.6,315.3c-0.2,0.4-0.3,0.8-0.5,1.2c-0.6,1.4-1.6,2.3-3.1,2.2c-1.6-0.1-2.5-1.2-3.2-2.6
		c-0.5-1.1,0.2-2.8-1.8-3.1c-0.6-0.1,0-1.8,0.8-1.9c1.3-0.2,1.4-1.1,1.1-2c-0.2-0.6-0.1-1.1-0.2-1.6c-0.1-1,0.3-1.4,1.3-1.2
		c0.5,0.1,1,0.1,1.5,0.2c0.5,0.1,1.5-0.3,1.5,0.7c0,0.8,0.5,1.9-0.6,2.5c-0.4,0.2-0.9,0.5-1.1,1c-0.3,0.8-0.5,1.6-0.1,2.4
		c0.1,0.3,0.4,0.4,0.6,0.3c0.8-0.3,0.7-1.1,0.9-1.7c0.3-0.7,0.4-1.5,0.7-2.1c0.6-1.5,1.5-2.7,3.3-2.5c1.7,0.1,2.7,1.2,3.3,2.7
		c0.4,1.1-0.1,2.7,1.8,3c0.4,0.1,0.2,0.9,0.1,1.4c0,0.6-0.5,0.5-0.8,0.5c-1.5,0-1.6,0.6-1.2,1.9c0.3,0.8,0.5,2.1-0.2,2.4
		c-1,0.5-2.5,0.4-3.4-0.3c-0.8-0.5-0.2-1.8-0.2-2.8c1.4-0.3,1.8-1.4,1.8-2.7c0-0.4-0.2-0.8-0.6-0.8c-0.5-0.1-0.7,0.3-0.8,0.6
		C272,313.6,271.8,314.4,271.6,315.3z"/>
	<path class="st1" d="M299.5,486.9c0.2,0.1,0.3,0.2,0,0.4c0,0-0.2-0.1-0.2-0.2C299.3,487,299.4,487,299.5,486.9z"/>
	<path class="st0" d="M382,476.8c2.8,0.1,4.2,1.7,6,3.4c3.5,3.4,2.3,7.2,1.9,11.1c-0.1,1.5-1.1,2.8-2.6,3.2c-2,0.6-3.9,1.2-5.9,1.9
		c-1.6,0.5-3.2-0.1-4.7-0.9c0.5,4.1-0.4,5.4-4.2,6.5c-6,1.7-12,3.3-17.9,5c-2,0.6-3.7,0-5-1.7c-0.6-0.8-0.9-1.2-2.2-0.7
		c-1.7,0.8-3.7,1.2-5.5,1.9c-1.6,0.6-3.2,0.3-4.5-0.7c-2.8-2.3-5.6-4.8-6.3-8.5c-0.4-2.2-0.3-4.4-0.4-6.6c-0.1-1.9,1.3-3.2,3.1-3.8
		c0.8-0.2,1.6-0.4,2.5-0.6c-1-1.4-2.5-1.6-3.8-1.7c-3.5-0.1-5.3-1.7-6.1-5.1c-2.4-9.9-4.6-19.8-6-29.8c-2.1-14.3-3.4-28.6-3.6-43.1
		c-0.1-8.5,0-16.9,0.6-25.4c0.8-11.6,2.2-23.2,4.3-34.7c1.8-9.7,4-19.4,6.6-28.9c0.4-1.4,0.7-2.8,1.2-4.1c0.7-2,2.9-3.2,5.1-2.7
		c1.1,0.2,2.2,0.6,3.3,0.5c0.9,0,1.8,0,2.8-0.1c-4.2-1.2-6.2-4.1-6.4-8.3c0-0.4-0.2-0.7-0.4-1.1c-1.2-2.8-0.2-6.7,2.3-8.4
		c0.7-0.5,1.2-1,1.5-1.8c1.4-2.7,3.7-3.5,6.5-2.2c2.4,1.1,4.7,2.3,7.2,3.3c2.7,1.1,4,3.3,4.4,6.1c0.1,1,0.1,2,0.9,2.9
		c1.4-1.2,2-2.9,2.8-4.5c1.5-2.9,3.7-3.9,6.6-2.5c8.5,4.1,16.9,8.2,25.4,12.3c1.3,0.6,2.6,1.3,3.9,1.9c2.5,1.3,3.4,3.5,2.2,6.1
		c-0.8,1.7-1.5,3.4-1.6,5.5c1.2-0.2,2.1-0.6,2.7-1.7c0.9-1.5,3.1-2.3,4.8-1.6c3.2,1.3,6.3,2.7,9.4,4.3c0.8,0.4,1.5,1.2,2,2
		c1.4,2.1,1.8,4.6,2.2,6.9c0.4,2-0.9,3.9-2.3,5.1c-1.3,1.1-2.8,2-4.2,3.1c-0.5,0.4-1.2,0.5-2.1,0.8c3,2.4,2.2,5,0.8,7.9
		c-4.7,10-8.6,20.3-11.8,30.9c-4,13.2-6.8,26.7-8.5,40.4c-1.6,13.1-2.1,26.4-1.4,39.6c0.2,3.9,0.5,7.9,0.8,11.8
		c0.3,3.6-0.9,5.1-4.3,5.9C383.5,475.9,382.8,476.1,382,476.8z M321.1,401.8c0.1,0,0.2,0,0.3,0c0,3.1-0.1,6.3,0,9.4
		c0.4,11.9,1.3,23.7,3.1,35.4c1.5,9.9,3.5,19.8,5.8,29.5c0.5,2.3,1,4.4,4.1,4c0.3,0,0.7,0.2,1.1,0.3c4.6,1.4,7.7,4.8,10.7,8.2
		c0.9,1,2.3,1.7,2.7,3.1c1,3.3,3,6.1,3.8,9.4c0.3,1,0.7,1.4,1.9,1.1c5.5-1.6,11.1-3.1,16.7-4.6c0.8-0.2,1.3-0.4,0.9-1.4
		c-0.2-0.6-0.2-1.2-0.2-1.9c-0.5-5.8-0.9-11.5,2.8-16.7c2.1-3,4.6-5.3,8.1-6.3c1.1-0.3,1.3-0.8,1.2-1.8c-0.4-5.1-0.9-10.1-1-15.2
		c-0.5-17.7,0.9-35.2,4.2-52.6c2.1-11.2,5-22.1,8.6-32.9c2.6-7.8,5.7-15.4,9.1-22.9c1.2-2.7,1.2-2.7-1.5-4.1
		c-10.2-5.4-14.7-16.6-10.7-27.1c0.7-1.8,0.2-2.5-1.3-3.2c-8.7-4.1-17.3-8.3-25.9-12.5c-1.2-0.6-1.8-0.6-2.6,0.8
		c-6.2,11-15,17.2-28.2,15.2c-0.9-0.1-1.3,0.2-1.5,1c-0.5,1.8-1,3.6-1.5,5.4c-2.2,8-4,16.1-5.5,24.2c-2.4,13-4.1,26.1-4.6,39.3
		C321.6,390.6,321.3,396.2,321.1,401.8z M338.9,302.2c0.1,1.9,0.6,3.2,2.2,3.9c1.6,0.7,2.8-0.1,3.8-1.2c0.6-0.6,1-1.4,1.5-2.1
		c0.4-0.5,0.7-1.2,1.5-1.3c0.4,0,0.6,0.3,0.6,0.6c0,0.8-0.3,1.5-1,1.9c-0.2,0.2-0.5,0.4-0.8,0.4c-1.6,0.2-1.3,1.6-1.7,2.5
		c-0.1,0.3,3,1.9,3.4,1.7c0.8-0.5,1-1.5,1-2.3c-0.1-1.5,0.3-1.9,1.7-1.4c0.4,0.2,0.8,0.4,1-0.2c0.1-0.5,0.8-1.2,0.1-1.5
		c-1.3-0.6-0.8-1.6-0.7-2.5c0.3-1.9-0.5-3.6-2-4.2c-1.8-0.7-3.2,0-4.3,1.4c-0.5,0.6-0.8,1.3-1.3,1.8c-0.4,0.5-0.7,1.5-1.5,1
		c-0.7-0.5-0.2-1.4,0.1-2c0.3-0.5,0.7-0.9,1.3-1c1.7-0.1,2.1-1.6,1.8-2.5c-0.3-1.3-2.1-1.6-3.2-1.8c-0.9-0.1-1.1,1.4-1.2,2.3
		c-0.1,1.1-0.3,2.1-1.8,1.7c-0.5-0.1-0.8-0.3-1,0.3c-0.1,0.5-0.6,1.2-0.2,1.4C340.1,299.9,338.7,301.4,338.9,302.2z M406.3,323.2
		c-0.8-0.4-1.5-0.8-2.3-1.2c-1.5-0.8-2.2-0.5-2.4,1.2c-0.2,1.3-0.7,1.8-1.9,1.3c-0.6-0.3-0.9-0.1-1.1,0.5c-0.2,0.4-0.7,0.9,0.2,1.2
		c0.7,0.2,0.7,0.7,0.5,1.4c-0.5,1.6-0.2,3,1.4,3.9c1.6,0.9,3.3,0.7,4.7-0.6c0.7-0.6,1.3-1.3,2.1-1.9c0.3-0.3,0.8-0.6,1.2-0.2
		c0.5,0.5,0.2,0.9-0.1,1.3c-0.4,0.5-1.1,0.6-1.7,0.8c-0.4,0.1-0.8,0-1.1,0.5c-1.1,1.6,0,2,1.2,2.4c1.2,0.5,2.5,1,2.6-0.8
		c0.2-1.6,0.7-1.8,2-1.2c0.5,0.2,0.8,0.1,1.1-0.4c0.3-0.5,0.4-0.9-0.3-1.1c-0.8-0.2-0.5-0.8-0.4-1.4c0.3-1.7,0.2-3.1-1.6-4
		c-1.6-0.8-3.4-0.6-4.8,0.8c-0.5,0.5-0.9,1-1.4,1.5c-0.4,0.3-1,0.8-1.5,0.2c-0.4-0.6,0-1.1,0.4-1.5c0.3-0.4,0.7-0.6,1.1-0.6
		C405.4,325.4,405.8,324.4,406.3,323.2z M339.2,497.4c-1-1.3-1.3-2.4-0.9-3.5c0.3-0.8,0.2-1.4,0.1-2.2c-0.2-1.6-1.2-1.1-2.2-0.9
		c-1.4,0.2-0.6,1.1-0.5,1.7c0.2,1.2,1.7,2.4,0,3.8c-0.2,0.1,0.2,1.5,0.4,1.5c1.4,0.1,1.4,1.4,2,2.2c0.7,1.1,1.3,2.4,2.8,2.1
		c1.8-0.5,1.2-2.2,1.4-3.5c0-0.3-0.3-0.7-0.3-1.1c-0.1-0.9-0.4-1.8,0.1-2.6c0.6,1,1.1,1.9,0.5,3.1c-0.5,1,0,1.9,0.4,2.7
		c0.5,1,1.3,0.2,2,0.1c0.8-0.1,0.5-0.7,0.4-1.2c-0.2-1.3-2.2-2.6,0-3.9c-0.4-0.5-0.1-1.5-0.8-1.6c-1.1-0.1-1-0.9-1.4-1.5
		c-0.4-0.7-0.7-1.3-1.2-1.9c-1.2-1.3-2.6-1-3.1,0.7c-0.3,0.8-0.3,1.7,0,2.6C339.4,494.9,339.5,495.9,339.2,497.4z M382.9,485.2
		c0.8,1.3,0.7,2.3-0.1,3.3c-0.6,0.8,0,1.7,0.4,2.2c0.3,0.5,1.1-0.1,1.7-0.2c1.1-0.3,0.4-1,0.3-1.5c-0.2-1.1-0.9-2.2,0.7-2.9
		c0.1-0.1,0.1-1,0-1c-1.5-0.5-1.4-2-2.1-3c-0.9-1.2-2.2-1.1-3.1,0.1c-0.3,0.4-0.2,1-0.9,1.2c0.1-1.8-0.9-1.5-2-1.2
		c-1.5,0.4-0.8,1.4-0.6,2.1c0.3,1,0.7,1.8-0.6,2.5c-0.6,0.3,0,1.4,0.1,1.5c1.5,0.2,1.3,1.6,1.9,2.5c0.5,0.7,1,1.4,1.9,1.2
		c0.9-0.2,1.4-0.8,1.6-1.7c0.2-0.7,0.2-1.5,0.2-2.2C382.5,487.1,382.2,486.2,382.9,485.2z"/>
	<path class="st0" d="M271.6,315.3c0.2-0.8,0.4-1.7,0.7-2.5c0.1-0.4,0.4-0.7,0.8-0.6c0.4,0.1,0.6,0.4,0.6,0.8
		c0.1,1.3-0.3,2.4-1.8,2.7C271.8,315.5,271.7,315.4,271.6,315.3z"/>
	<path class="st1" d="M321.1,401.8c0.2-5.6,0.5-11.2,0.7-16.7c0.5-13.2,2.2-26.3,4.6-39.3c1.5-8.1,3.3-16.2,5.5-24.2
		c0.5-1.8,1-3.6,1.5-5.4c0.2-0.8,0.6-1.1,1.5-1c13.2,2,22-4.2,28.2-15.2c0.8-1.4,1.3-1.4,2.6-0.8c8.6,4.2,17.3,8.4,25.9,12.5
		c1.5,0.7,2,1.3,1.3,3.2c-4,10.5,0.5,21.8,10.7,27.1c2.6,1.4,2.7,1.4,1.5,4.1c-3.4,7.5-6.5,15.1-9.1,22.9
		c-3.6,10.8-6.5,21.7-8.6,32.9c-3.3,17.4-4.7,34.9-4.2,52.6c0.1,5.1,0.6,10.1,1,15.2c0.1,1.1-0.1,1.5-1.2,1.8
		c-3.6,0.9-6,3.3-8.1,6.3c-3.7,5.2-3.3,10.9-2.8,16.7c0.1,0.6,0,1.3,0.2,1.9c0.4,1-0.2,1.2-0.9,1.4c-5.6,1.5-11.1,3-16.7,4.6
		c-1.1,0.3-1.6,0-1.9-1.1c-0.9-3.3-2.8-6.1-3.8-9.4c-0.4-1.4-1.8-2.1-2.7-3.1c-3-3.4-6.1-6.9-10.7-8.2c-0.4-0.1-0.7-0.3-1.1-0.3
		c-3.1,0.4-3.5-1.8-4.1-4c-2.3-9.8-4.3-19.6-5.8-29.5c-1.7-11.7-2.7-23.6-3.1-35.4c-0.1-3.1,0-6.3,0-9.4
		C321.3,401.8,321.2,401.8,321.1,401.8z M382.6,402.1c0-16.7-7.8-28.3-20.7-33c-9.9-3.5-18.8-1.6-26.5,5.6
		c-5.7,5.3-8.7,12.1-9.5,19.8c-1.3,12.4,1.7,23.5,10.3,32.8c8.1,8.7,20.2,10.3,30.1,3.6C377.4,423.4,382,412.5,382.6,402.1z"/>
	<path class="st2" d="M338.9,302.2c-0.1-0.8,1.2-2.3-0.7-3.1c-0.3-0.1,0.1-0.9,0.2-1.4c0.2-0.6,0.6-0.5,1-0.3
		c1.5,0.4,1.7-0.5,1.8-1.7c0.1-1,0.3-2.4,1.2-2.3c1.1,0.2,2.9,0.5,3.2,1.8c0.2,0.9-0.2,2.4-1.8,2.5c-0.6,0-1.1,0.4-1.3,1
		c-0.3,0.7-0.9,1.5-0.1,2c0.8,0.5,1.1-0.5,1.5-1c0.5-0.6,0.8-1.2,1.3-1.8c1.1-1.4,2.5-2.2,4.3-1.4c1.5,0.6,2.3,2.3,2,4.2
		c-0.1,1-0.6,1.9,0.7,2.5c0.6,0.3,0,1-0.1,1.5c-0.2,0.7-0.6,0.4-1,0.2c-1.4-0.5-1.8-0.1-1.7,1.4c0,0.8-0.2,1.8-1,2.3
		c-0.3,0.2-3.5-1.4-3.4-1.7c0.4-1,0.2-2.3,1.7-2.5c0.3,0,0.6-0.2,0.8-0.4c0.6-0.5,1-1.1,1-1.9c0-0.3-0.2-0.7-0.6-0.6
		c-0.8,0-1.1,0.8-1.5,1.3c-0.5,0.7-0.9,1.5-1.5,2.1c-1,1.1-2.2,1.9-3.8,1.2C339.4,305.5,339,304.1,338.9,302.2z"/>
	<path class="st2" d="M406.3,323.2c-0.5,1.1-0.9,2.2-2.4,2.1c-0.5,0-0.9,0.2-1.1,0.6c-0.3,0.4-0.8,0.9-0.4,1.5
		c0.5,0.6,1.1,0.1,1.5-0.2c0.5-0.4,0.9-1,1.4-1.5c1.4-1.4,3.2-1.7,4.8-0.8c1.7,0.9,1.9,2.3,1.6,4c-0.1,0.5-0.4,1.1,0.4,1.4
		c0.7,0.2,0.6,0.6,0.3,1.1c-0.2,0.5-0.6,0.6-1.1,0.4c-1.3-0.6-1.8-0.4-2,1.2c-0.2,1.8-1.5,1.3-2.6,0.8c-1.1-0.5-2.3-0.9-1.2-2.4
		c0.3-0.5,0.7-0.4,1.1-0.5c0.6-0.2,1.2-0.3,1.7-0.8c0.3-0.4,0.6-0.9,0.1-1.3c-0.4-0.4-0.9-0.1-1.2,0.2c-0.7,0.6-1.4,1.3-2.1,1.9
		c-1.4,1.3-3,1.5-4.7,0.6c-1.6-0.8-1.9-2.2-1.4-3.9c0.2-0.6,0.2-1.1-0.5-1.4c-0.8-0.3-0.3-0.8-0.2-1.2c0.2-0.6,0.5-0.8,1.1-0.5
		c1.3,0.6,1.7,0.1,1.9-1.3c0.2-1.7,0.9-2,2.4-1.2C404.7,322.4,405.5,322.8,406.3,323.2z"/>
	<path class="st2" d="M339.2,497.4c0.3-1.5,0.2-2.5-0.1-3.5c-0.3-0.9-0.2-1.7,0-2.6c0.5-1.7,1.9-2,3.1-0.7c0.5,0.6,0.8,1.2,1.2,1.9
		c0.3,0.6,0.3,1.4,1.4,1.5c0.7,0,0.5,1.1,0.8,1.6c-2.2,1.3-0.1,2.6,0,3.9c0.1,0.5,0.4,1.1-0.4,1.2c-0.7,0.1-1.5,0.9-2-0.1
		c-0.4-0.8-1-1.7-0.4-2.7c0.6-1.2,0.1-2.1-0.5-3.1c-0.5,0.9-0.2,1.8-0.1,2.6c0,0.4,0.3,0.7,0.3,1.1c-0.2,1.3,0.4,3.1-1.4,3.5
		c-1.5,0.4-2.1-1-2.8-2.1c-0.5-0.8-0.6-2-2-2.2c-0.2,0-0.6-1.3-0.4-1.5c1.6-1.3,0.2-2.5,0-3.8c-0.1-0.6-1-1.4,0.5-1.7
		c1-0.2,2-0.7,2.2,0.9c0.1,0.8,0.2,1.4-0.1,2.2C337.9,495,338.2,496.1,339.2,497.4z"/>
	<path class="st2" d="M382.9,485.2c-0.7,1.1-0.5,2-0.6,2.8c-0.1,0.7-0.1,1.5-0.2,2.2c-0.2,0.8-0.7,1.5-1.6,1.7
		c-0.9,0.2-1.5-0.5-1.9-1.2c-0.6-0.9-0.4-2.3-1.9-2.5c-0.1,0-0.6-1.2-0.1-1.5c1.3-0.7,0.8-1.5,0.6-2.5c-0.2-0.7-0.9-1.7,0.6-2.1
		c1.1-0.3,2.1-0.5,2,1.2c0.8-0.2,0.6-0.9,0.9-1.2c0.9-1.2,2.2-1.3,3.1-0.1c0.8,1,0.6,2.5,2.1,3c0.1,0,0.2,1,0,1
		c-1.6,0.7-0.8,1.8-0.7,2.9c0.1,0.5,0.7,1.3-0.3,1.5c-0.6,0.1-1.4,0.7-1.7,0.2c-0.4-0.6-1-1.4-0.4-2.2
		C383.6,487.5,383.7,486.5,382.9,485.2z M379.9,484.5c-0.4,0-0.6,0.3-0.7,0.5c-0.4,0.8-0.4,1.6,0.1,2.3c0.1,0.1,0.4,0.2,0.5,0.1
		c0.6-0.6,0.2-1.3,0.3-2C380.1,485.2,380.2,484.8,379.9,484.5z"/>
	<path class="st0" d="M382.6,402.1c-0.6,10.4-5.3,21.3-16.2,28.7c-9.9,6.7-22,5.2-30.1-3.6c-8.6-9.3-11.6-20.4-10.3-32.8
		c0.8-7.7,3.8-14.4,9.5-19.8c7.6-7.2,16.6-9.1,26.5-5.6C374.9,373.8,382.6,385.4,382.6,402.1z M330.1,399.5c0.1,2.1,0.1,4.2,0.5,6.4
		c1.3,7.2,4.1,13.6,9.4,18.9c6.8,6.7,15.9,7.8,23.7,2.5c10.2-7,14.7-17,14.4-29.2c-0.3-12.2-8.2-22.1-19.9-25.4
		c-8.7-2.4-17,1.4-21.8,7.4C332,385.8,330,392.3,330.1,399.5z"/>
	<path class="st0" d="M379.9,484.5c0.3,0.3,0.2,0.7,0.2,1c-0.1,0.7,0.3,1.4-0.3,2c-0.1,0.1-0.4,0-0.5-0.1c-0.5-0.7-0.5-1.5-0.1-2.3
		C379.3,484.7,379.5,484.5,379.9,484.5z"/>
	<path class="st1" d="M330.1,399.5c-0.2-7.2,1.8-13.8,6.3-19.4c4.8-6.1,13.1-9.9,21.8-7.4c11.7,3.3,19.6,13.2,19.9,25.4
		c0.3,12.1-4.2,22.2-14.4,29.2c-7.8,5.3-16.9,4.2-23.7-2.5c-5.3-5.2-8.1-11.6-9.4-18.9C330.2,403.8,330.2,401.7,330.1,399.5z
		 M331.1,399.5c0,0-0.1,0-0.1,0c0,1.1,0,2.1,0,3.2c0.1,1.4,0.6,2.8,1.9,3.2c2.1,0.7,2.5,2.2,2.7,4.1c0.1,0.6,0.2,1.1,0.4,1.6
		c2.5,8.3,9.4,12.3,16.9,9c0.4-0.2,0.8-0.4,1.2-0.3c3.9,1.6,8.1,1.2,12.2,1.5c2.7,0.1,4.4-1.4,4.7-4.1c0.2-1.8,0.3-3.6,0.4-5.4
		c0.1-0.7,0.2-1.3,1.2-1.6c2.6-0.6,3.6-1.9,3.9-4.6c0.2-1.4,0.3-2.8,0.6-4.1c0.5-2-0.1-3.8-1.7-4.6c-2.2-1-2.3-2.8-2.6-4.6
		c-0.2-0.9-0.4-1.9-0.7-2.7c-2.4-6.2-7-8.7-12.8-8.5c-1.9,0.1-3.9,0.9-5.5-0.9c-0.3-0.3-0.8-0.3-1.2-0.4c-3.5-0.6-7-1.3-10.5-1.9
		c-2.7-0.4-5.1,1.7-5.3,4.4c-0.1,2.5-0.5,5-0.7,7.5c-0.1,0.7-0.2,1.1-1,1.3c-2.4,0.5-3.6,2-3.9,4.4
		C331,397.2,331.1,398.4,331.1,399.5z"/>
	<path class="st0" d="M331.1,399.5c0-1.1-0.1-2.3,0-3.4c0.2-2.5,1.4-3.9,3.9-4.4c0.8-0.2,1-0.6,1-1.3c0.2-2.5,0.6-5,0.7-7.5
		c0.2-2.7,2.6-4.8,5.3-4.4c3.5,0.6,7,1.2,10.5,1.9c0.4,0.1,1,0.1,1.2,0.4c1.6,1.8,3.6,0.9,5.5,0.9c5.8-0.2,10.4,2.4,12.8,8.5
		c0.3,0.9,0.6,1.8,0.7,2.7c0.3,1.8,0.4,3.6,2.6,4.6c1.6,0.8,2.2,2.6,1.7,4.6c-0.3,1.3-0.4,2.7-0.6,4.1c-0.3,2.7-1.3,4-3.9,4.6
		c-1,0.2-1.1,0.9-1.2,1.6c-0.2,1.8-0.2,3.6-0.4,5.4c-0.3,2.6-2,4.2-4.7,4.1c-4.1-0.2-8.3,0.2-12.2-1.5c-0.5-0.2-0.8,0.1-1.2,0.3
		c-7.5,3.3-14.4-0.7-16.9-9c-0.2-0.5-0.3-1.1-0.4-1.6c-0.2-1.9-0.6-3.4-2.7-4.1c-1.3-0.4-1.8-1.8-1.9-3.2c0-1.1,0-2.1,0-3.2
		C331,399.5,331.1,399.5,331.1,399.5z M368.9,397.1c-0.1-0.8-0.1-1.8-0.2-2.7c-0.5-3.4-3.1-7.7-7.2-8c-4-0.3-7.2,1.4-8.9,5.5
		c-1.4,3.2-2.5,6.6-3.7,9.8c-0.3,0.8-0.8,1.3-1.7,1.3c-0.8-0.1-1.1-0.7-1.4-1.4c-0.8-2.7,0.3-6.9,2.9-7.9c2.5-1,2.7-2.6,2.8-4.7
		c0-0.9,0.1-1.8,0.4-2.6c0.4-1.3-0.2-1.5-1.2-1.7c-2-0.4-4-0.6-5.9-1.1c-3.4-0.7-3.6-0.8-3.7,2.6c0,1.7-1.9,4,1,5.3c0,0,0,0.2,0,0.3
		c-0.6,1.5-1.3,3-2,4.5c-0.3,0.6-0.8,0.3-1.2,0.2c-3.2-0.3-3.2-0.3-3.3,2.9c0,0.3,0,0.6,0,0.9c-0.3,1.7,0.3,2.5,2,2.3
		c1.5-0.2,1.8,0.6,1.9,2c0.1,3.3,0.7,6.6,2.6,9.5c2.6,3.9,7.7,4.4,11,0.9c1.3-1.4,2.2-3,2.9-4.8c1-2.8,1.9-5.7,2.9-8.5
		c0.4-1,0.8-2.2,2.1-2c1.3,0.2,1.4,1.4,1.4,2.5c0.1,2.7-0.9,5-3.2,6.2c-2,1.1-2.1,2.4-2.1,4.2c0,1,0,2-0.1,3
		c-0.1,0.9,0.1,1.3,1.1,1.3c2.5,0.1,5,0.3,7.5,0.4c0.3,0,0.7,0,0.9-0.1c0.4-0.2,0.9-6.9,0.5-7c-2.6-0.3-0.6-1.6-0.4-2.2
		c0.3-0.9,0.3-2.3,2.1-2.1c1.1,0.1,2.5,1,3.2,0.2c0.8-0.8,0.4-2.3,0.6-3.4c0-0.1,0-0.3,0.1-0.4c0.4-1.1,0-1.7-1.2-1.6
		c-2,0.1-3.1-0.5-2.5-2.8C368.9,397.7,368.9,397.4,368.9,397.1z"/>
	<path class="st2" d="M368.9,397.1c0,0.3,0.1,0.6,0,0.8c-0.6,2.3,0.6,2.9,2.5,2.8c1.2-0.1,1.6,0.5,1.2,1.6c0,0.1,0,0.2-0.1,0.4
		c-0.2,1.2,0.2,2.7-0.6,3.4c-0.8,0.8-2.2-0.1-3.2-0.2c-1.8-0.2-1.7,1.2-2.1,2.1c-0.2,0.6-2.3,1.9,0.4,2.2c0.3,0-0.2,6.8-0.5,7
		c-0.3,0.1-0.6,0.1-0.9,0.1c-2.5-0.1-5-0.3-7.5-0.4c-1,0-1.2-0.4-1.1-1.3c0.1-1,0.1-2,0.1-3c0-1.8,0.1-3.2,2.1-4.2
		c2.2-1.2,3.2-3.6,3.2-6.2c0-1.1-0.2-2.3-1.4-2.5c-1.3-0.2-1.8,1-2.1,2c-1,2.8-1.9,5.7-2.9,8.5c-0.6,1.8-1.5,3.4-2.9,4.8
		c-3.2,3.5-8.3,3-11-0.9c-1.9-2.9-2.5-6.1-2.6-9.5c-0.1-1.4-0.3-2.1-1.9-2c-1.8,0.2-2.4-0.7-2-2.3c0.1-0.3,0-0.6,0-0.9
		c0.1-3.2,0.1-3.2,3.3-2.9c0.4,0,0.9,0.3,1.2-0.2c0.7-1.5,1.3-3,2-4.5c0-0.1,0.1-0.3,0-0.3c-2.9-1.3-1-3.6-1-5.3
		c0.1-3.4,0.3-3.3,3.7-2.6c2,0.4,3.9,0.7,5.9,1.1c1,0.2,1.6,0.4,1.2,1.7c-0.3,0.8-0.4,1.7-0.4,2.6c-0.1,2.1-0.3,3.7-2.8,4.7
		c-2.6,1-3.7,5.3-2.9,7.9c0.2,0.7,0.6,1.3,1.4,1.4c0.9,0.1,1.4-0.5,1.7-1.3c1.2-3.3,2.3-6.6,3.7-9.8c1.7-4.1,4.9-5.8,8.9-5.5
		c4.1,0.3,6.8,4.6,7.2,8C368.8,395.3,368.8,396.2,368.9,397.1z"/>
</g>
</svg>
