<?xml version="1.0" encoding="utf-8"?>
<!-- Generator: Adobe Illustrator 21.1.0, SVG Export Plug-In . SVG Version: 6.00 Build 0)  -->
<svg version="1.1" id="Capa_1" xmlns="http://www.w3.org/2000/svg" xmlns:xlink="http://www.w3.org/1999/xlink" x="0px" y="0px"
	 viewBox="0 0 386 392.4" style="enable-background:new 0 0 386 392.4;" xml:space="preserve">
<style type="text/css">
	.st0{fill:#3F3424;}
	.st1{fill:#889B63;}
	.st2{fill:#FBFBFA;}
</style>
<g>
	<path class="st0" d="M117.4,73.8c5.7,0.9,11.7,1.9,17.8,3c13.5,2.2,27.1,4.4,40.6,6.7c6.4,1,12.8,2.2,19.2,3.3c2,0.3,3.2,0.2,4-2.2
		c2.7-8.4,6-16.7,9.4-24.9c1.7-3.9,4.4-4.9,8.2-3c18.7,10.1,37.5,20.1,56.2,30.2c11.3,6.1,22.8,12.3,34.2,18.4
		c6.4,3.4,12.8,6.8,19.2,10.2c3.3,1.8,4.2,4.7,2,7.8c-5.3,7.7-10.3,15.5-14.9,23.7c-8.1,14.8-14.8,30.1-19.9,46.2
		c-5.1,15.9-8.6,32-10.6,48.5c-2.4,19.7-2.5,39.5-0.3,59.4c0.9,8.1,2.2,16.1,3.7,24.1c0.8,3.7-0.3,5.7-3.9,6.9
		c-7.7,2.6-15.3,5.1-23,7.7c-10.6,3.5-21,7-31.6,10.6c-3.2,1-6.4,2.2-9.5,3.2c-1.5,0.5-2.8,1.1-4.2,2c-2.6,1.9-5,1.7-7.3-0.7
		c-1.6-1.6-3.3-3.3-4.5-5.1c-2.4-3.3-5.8-5.2-9.2-7.1c-9.9-5.8-19.4-12.3-28.6-19.1c-15.3-11.3-29.6-23.8-42.9-37.5
		c-17.9-18.4-33.9-38.5-47.7-60.2c-9.4-14.9-17.8-30.2-25.1-46.3c-8.2-18.2-14.9-36.9-20.2-56.2c-1.1-4,0.5-6.6,4.5-7.3
		c13.1-2.3,26.2-4.5,39.4-6.8c12.1-2.2,24.4-4.3,36.5-6.5c1.4-0.2,1.2-1,1.4-1.9c0.2-7.5,0.3-15,1-22.5
		C112,75.5,114,73.7,117.4,73.8z M139.4,114.3c0.1,0.1,0.2,0.2,0.3,0.5c0,1.1-0.7,2.6,0.2,3.2c1,0.7,2.7,0.8,3.9,0.3
		c0.9-0.5,0.6-1.9,0.2-2.7c-0.5-1.5-0.3-2.2,1.4-2.2c0.5,0,0.9,0.1,0.9-0.6c0-0.6,0.2-1.5-0.1-1.6c-2.2-0.3-1.6-2.2-2-3.4
		c-0.7-1.7-1.8-3-3.7-3.1c-2-0.1-3.1,1.2-3.7,2.8c-0.3,0.8-0.5,1.6-0.8,2.4c-0.2,0.7-0.2,1.6-1,1.9c-0.2,0.1-0.6,0-0.7-0.3
		c-0.5-0.9-0.2-1.8,0.1-2.7c0.2-0.6,0.7-0.8,1.2-1.1c1.2-0.7,0.7-1.9,0.7-2.8c0-1-1-0.7-1.7-0.8c-0.6-0.1-1.1-0.1-1.7-0.2
		c-1.1-0.2-1.6,0.2-1.5,1.4c0.1,0.6,0,1.2,0.2,1.8c0.3,1,0.2,2-1.2,2.3c-0.9,0.1-1.6,2-0.9,2.2c2.3,0.3,1.5,2.4,2,3.5
		c0.7,1.6,1.7,2.8,3.6,3c1.8,0.1,2.8-1,3.5-2.5C139,115.2,139.2,114.7,139.4,114.3z M170.9,309.3c0.1,0.1,0.2,0.2,0.2,0.2
		c0.2-0.1,0.1-0.3,0-0.5c-1.1-2.6-3-4.9-4.4-7.3c-7.1-11.6-13.8-23.4-19.6-35.7c-0.5-1-0.8-1.9-2.2-2.2c-8.2-1.2-15.3-4.7-21.8-10
		c-7.6-6.4-12.9-14-15.3-23.6c-3-12,0.8-25.6,11.7-32.6c2-1.4,2.2-2.5,1.7-4.7c-3.7-15-6.2-30.2-7.9-45.5
		c-0.8-7.6-1.5-15.2-1.9-22.7c-0.1-1.9-0.5-2.4-2.5-1.9c-8.3,1.9-16.6,3.6-24.9,5.4c-4.7,1-4.5,1-4,5.8c1.4,12-3.4,24.6-14.8,30.5
		c-1.2,0.6-1.2,1.1-0.8,2.3c6.6,16,14.2,31.4,22.9,46.3c9,15.2,19,29.6,30.1,43.2c4.9,6,9.9,11.9,15.2,17.5
		c7.8,8.3,15.9,16.3,24.5,23.8C161.6,301.8,166,305.9,170.9,309.3z M184.1,200.8c0.1,6.6,0,13.2,0.3,19.9
		c0.6,10.6,1.4,21.2,2.8,31.7c1.8,13.8,4.5,27.7,8.1,41.2c4.8,18.5,11,36.5,18.5,54c0.6,1.2,1.1,1.7,2.6,1.1
		c7.7-2.7,15.5-5.2,23.3-7.8c13.3-4.4,26.6-9,39.8-13.4c1.7-0.6,2-1.2,1.7-3.1c-2-9.8-3.4-19.6-4.2-29.5
		c-0.9-11.5-1.1-22.9-0.7-34.4c0.5-11.6,1.7-23,3.7-34.5c3.6-21,9.8-41.2,18.4-60.7c6.8-15.3,14.9-29.8,24.5-43.5
		c1-1.5,0.9-2.2-0.7-3c-12-6.5-24.1-12.9-36.1-19.4c-15.3-8.2-30.6-16.3-46-24.5c-8.3-4.4-16.6-8.9-24.9-13.4c-1.2-0.7-2-1-2.7,0.8
		c-3.4,8.4-6.7,16.9-9.6,25.5c-5.6,16.9-10,34-13.2,51.6c-1.7,9.4-3.2,19-4,28.5C184.9,179,184,189.9,184.1,200.8z M159.2,101.7
		c-2.3-0.1-2.3-0.1-2.4,1.4c-0.8,6-3.1,11.6-6.8,16.3c-4.7,6-10.4,10-18.3,10.4c-1.1,0.1-1.1,0.8-1.1,1.6c0,2.4,0.3,4.9,0.5,7.3
		c0.8,10.6,1.9,21.1,3.6,31.6c2.3,14.1,5.4,28,9.4,41.9c5.3,18.6,12.1,36.5,20.5,54c6.4,13.3,13.5,26,21.4,38.5
		c1.6,2.5,3,4.1,6.1,3.1c1.2-0.3,1.7-0.5,1.2-1.8c-5-16.9-8.6-34-10.9-51.5c-0.1-0.9-0.3-1.4-1.4-1.6c-7.8-2-14.3-6.5-19.3-12.7
		c-10-12.5-14.5-26.3-9.2-42.2c3.6-10.7,13.3-18.8,25.2-19.4c1.6-0.1,2-0.6,2.2-2c0.7-9,1.7-17.8,3-26.8c2.2-14.2,5-28.3,8.9-42.2
		c0.3-1.4,0.1-1.7-1.2-1.8c-3-0.2-5.9-0.7-8.9-1C174,103.5,166.4,102.6,159.2,101.7z M208.1,348.4c0.1-0.1,0.2-0.1,0.3-0.2
		c-1.8-4.4-3.6-8.7-5.2-13.2c-0.8-2-2.3-3.1-4-3.9c-3-1.4-5-3.5-5.3-6.8c-0.1-0.8-0.6-1.2-0.9-1.9c-2.2-3.1-1.8-5.3,1.1-7.8
		c0.2-0.2,0.6-0.5,0.9-0.6c0.3-0.2,0.7-0.6,0.6-1c-0.1-0.5-0.6-0.3-0.9-0.3c-1.4-0.1-2.7-0.1-4,0.3c-3.2,0.9-4.9,0.3-6.7-2.5
		c-3.2-4.9-6.2-9.8-9.2-14.6c-10.1-16.9-18.7-34.7-25.8-53.2c-5.3-13.8-9.9-28-13.4-42.6c-2.6-10.6-4.7-21.1-6.2-31.8
		c-1.4-9-2.4-17.9-3-26.9c-0.2-2.8-0.2-5.7-0.7-8.5c-0.9-4.9,0.8-6.9,5.6-7.8c2-0.3,4.1-0.6,5.9-1.8c-5.4-0.5-5.8-0.7-8.1-2.7
		c-1.2-1.2-1.7-3-2.6-4.3c-3.1-4.3-3.2-6.8-0.5-10.9c0.2-0.3,0.3-0.8,0.3-1.1c0.6-4.4,2.7-6,7.1-5.4c2.3,0.3,4.4,0.8,6.8,0.8
		c4-0.1,6.6,1.9,8.3,5.3c0.2,0.5,0.5,1,0.7,1.6c0.2,0.3,0.6,0.7,1,0.7c0.6-0.1,0.5-0.7,0.6-1c0.3-1.4,0.6-2.8,0.8-4.2
		c0.8-4.4,2.3-5.9,6.8-5.3c11.1,1.2,22.2,2.3,33.3,4.2c1.2,0.2,2.2,0.1,2.4-1.5c0.3-1.9,1-3.7,1.7-5.4c0.7-1.7,0-2-1.5-2.4
		c-12.3-1.9-24.4-4-36.7-5.9c-12.9-2.2-26-4.3-38.9-6.5c-1.4-0.2-2.2,0-2.2,1.7c-0.2,5.3-0.7,10.7-0.8,16c-0.3,16.1,0.3,32.3,2,48.3
		c0.8,7.3,1.8,14.4,3.1,21.7c1.8,11.1,4.2,22.1,7,32.9c3.7,13.8,8.2,27.5,13.4,40.7c5.9,15,12.7,29.4,20.5,43.4
		c10.6,19,22.8,36.8,36.7,53.5C201.7,341,204.9,344.8,208.1,348.4z M74.9,137.1c0.3-1.2-0.2-2.4-0.2-3.6c-0.1-1.2-0.5-2.5-0.5-3.9
		c-0.1-2.7,1.4-4.7,4-5.2c4.7-1,9.3-2,14-3.1c5.7-1.2,11.3-2.5,17.1-3.7c1.5-0.3,1.8-1,1.6-2.4c-0.2-1.6-0.3-3.3-0.2-4.9
		c0.1-1.9-0.5-2.5-2.4-2c-2.2,0.6-4.3,0.8-6.5,1.1c-12.7,2.2-25.3,4.4-38,6.7c-9.2,1.6-18.5,3.3-27.7,4.8c-1.8,0.3-2.2,0.9-1.7,2.6
		c2.3,8.4,4.9,16.7,7.8,24.9c7.3,20.4,16.2,40.1,26.9,59c5.8,10.2,12,20.2,18.7,29.8c6.5,9.2,13.4,18.3,20.9,26.8
		c4.7,5.3,9.3,10.8,14.2,16c4.7,4.9,9.6,9.4,14.6,14.1c15.1,14.2,31.4,26.7,48.6,38.2c0.3,0.2,0.8,0.8,1.2,0.2
		c0.3-0.5-0.2-0.7-0.5-1c-2.3-3.9-5.3-7.1-7.8-10.9c-0.5-0.7-0.9-1-1.7-1c-1.6,0.1-3-0.8-4.1-1.7c-6.7-5.2-13.3-10.3-19.6-16.1
		c-11-10-21.8-20.4-31.4-31.8c-7.3-8.5-14.5-16.9-21-26.1c-8.9-12.4-17-25.1-24.3-38.5c-6.6-12.3-12.6-24.7-17.7-37.7
		c-1.2-3.3-0.3-5.7,2.8-7.1c1.8-0.9,3.5-1.9,5.3-3.5c-6.2,1-8.2,0.6-11-2.3c-0.3-0.5-0.8-0.9-1.2-1.1c-4.1-2.7-5.2-5.3-4.1-10
		c0.2-0.7,0-1.4-0.1-2.2c-0.7-3.3,0.9-5.7,4.1-6.4c2.3-0.5,4.5-0.7,6.6-1.5c4.4-1.9,8.1-0.9,11.2,2.5
		C73.5,136.6,73.9,137.2,74.9,137.1z M178.8,207h-0.1c0,1.4,0,2.8,0,4.2c0,2.2,0,4.3-0.1,6.4c0,0.8-0.2,1.9-1.2,2.2
		c-1.2,0.3-1.8-0.6-2.3-1.5c-1.6-3.2-1.9-6.8,0.7-9.2c2.4-2.2,1.5-4.1,1.1-6.4c-0.1-0.5-0.2-0.9-0.3-1.5c-0.2-1.9-0.8-3.2-3.2-2.3
		c-1.5,0.6-3.1,0.5-4.7,0.7c-5.1,0.8-5.2,0.8-3.6,5.9c0.5,1.4-0.5,4,2.5,3.9c0,0,0.1,0.7,0.1,1c-0.1,1.5-0.2,2.8-0.2,4.3
		c0,0.9-0.5,1-1.1,1.2c-3.5,1-3.5,1-2.5,4.7c0.1,0.2,0.1,0.5,0.1,0.7c0.1,2,1.1,2.6,3,1.8c1.6-0.7,2.3-0.1,2.8,1.4
		c0.6,1.5,1.2,3,2.2,4.4c1.6,2.8,3.7,5.1,6.9,6.4c1.2,0.5,1.8,0.3,1.7-1.2c-0.2-1.6-0.3-3.1-0.3-4.7
		C179.5,221.9,179.1,214.5,178.8,207z M179.4,188.2c0-0.8,0-1,0-1.4c0.1-3.9,0-3.9-3.7-3.2c-10.7,2-18.5,10.9-19.9,21.8
		c-1,8.3,0.7,16,4.4,23.3c3.7,7.3,9.1,13.1,16.5,16.8c1.4,0.7,3,2.2,4.1,1.2c1.1-0.9,0.2-3,0.1-4.4c0-0.7,0-1.6-1.1-1.7
		c-6.6-0.9-10.6-5.2-13.4-10.8c-0.6-1.1-1.2-1.5-2.5-1.5c-1.9,0-3.3-1-4-2.8c-0.9-2.3-1.6-4.5-2.3-6.9c-0.9-3-0.2-4.7,2.4-6.4
		c0.6-0.3,1.4-0.7,0.9-1.4c-1.6-2.6-1.1-5.8-2-8.6c-1-3.5,1-6.4,4.7-6.8c2.2-0.2,4.2-0.7,6.4-0.9c2.8-0.2,5.6-1.5,8.4-0.3
		c1,0.5,0.7-0.6,0.8-1C179.3,191.4,179.4,189.5,179.4,188.2z M126.9,247.2c-2,0.1-3.4-0.5-4.4-1.9c-1.4-1.9-2.8-3.9-4.2-5.9
		c-1.6-2.3-1.5-4.2,0.2-6.2c0.8-0.9,0.7-1.5,0.1-2.4c-1.6-2.3-3.1-4.7-4.5-7c-1.7-2.8-1-5.7,1.8-7.3c2.7-1.6,5.6-3.1,8.5-4.5
		c1.1-0.6,1.5-1.2,1.1-2.5c-0.7-2.2-1.4-4.3-1.9-6.6c-0.2-1.1-0.7-1.2-1.6-0.7c-0.5,0.3-0.9,0.7-1.4,1c-8.3,7-10.6,17.9-7.1,28.3
		c3.9,11.8,12,20,23.3,25.1c1.7,0.8,3.4,1.5,5.2,1.7c0.5,0,1,0.3,1.1-0.5c0.1-1.1-1.9-4.2-3.1-4.5c-3-0.8-5.6-2.3-7.8-4.2
		C130.5,247.6,129,245.9,126.9,247.2z M138.5,247.3c-1.5-3.9-2.8-7.3-4.1-10.7c-2.4-6.1-4.5-12.4-6.5-18.7c-0.5-1.5-1-1.7-2.4-0.9
		c-1.6,0.9-3.3,1.7-4.9,2.6c-2.4,1.2-2.5,1.2-1.1,3.5c0.9,1.5,1.8,2.8,2.7,4.3c0.2,0.3,0.5,1.1,1,0.8c1.6-0.8,1.6,0.3,1.7,1.4
		c0.2,1,0.5,2.2,0.9,3.1c0.5,1,0.2,1.5-0.7,2c-3.1,2-3.1,2-0.8,5.1c0.2,0.2,0.5,0.5,0.6,0.7c0.8,1.8,1.9,1.9,3.3,0.7
		c1.2-1,2-1,3.2,0.5C133.4,243.8,135.5,245.7,138.5,247.3z M62.3,143.5L62.3,143.5c0,0.7,0.1,1.5,0,2.2c0,0.5,0.1,1-0.6,1.1
		s-1-0.3-1.2-0.9c-0.5-1.1-0.2-2.2,0.6-3.2c0.7-0.8,0.2-3.3-0.5-3.3c-1.5-0.1-3.2,0-4.2,1c-0.7,0.6,0.2,1.9,0.8,2.8
		c0.8,1.1,1.1,2.2-0.6,2.7c-0.7,0.2-0.8,0.6-0.6,1.1c0.2,0.6,0,1.6,1,1.4c1.4-0.3,1.6,0.6,2.2,1.5c0.9,1.5,1.9,2.8,4,2.8
		c2.4,0,4.1-2.2,3.9-5.1c-0.1-1-0.2-2.2-0.2-3.2c0-0.5,0.1-0.9,0.7-1c0.5-0.1,0.8,0.3,0.9,0.8c0.5,1.1,0.5,2.2-0.3,3.2
		c-1,1.4-0.1,3,0.7,3.2c1.1,0.3,2.7-0.2,3.7-0.9c0.9-0.7-0.1-1.8-0.6-2.6c-0.7-1.2-1.2-2.2,0.7-2.6c0.5-0.1,0.7-0.5,0.6-0.9
		c-0.2-0.6-0.2-1.5-0.7-1.4c-2,0.8-1.9-1-2.6-1.9c-1.2-1.8-3.2-2.7-4.9-2.2c-2.3,0.7-2.6,2.5-2.6,4.5
		C62.1,142.9,62.1,143.1,62.3,143.5z"/>
	<path class="st1" d="M184.1,200.8c-0.1-10.9,0.8-21.8,1.8-32.7c0.9-9.5,2.3-19.1,4-28.5c3.2-17.5,7.6-34.7,13.2-51.6
		c2.8-8.6,6.1-17.1,9.6-25.5c0.7-1.7,1.6-1.4,2.7-0.8c8.3,4.4,16.6,9,24.9,13.4c15.3,8.2,30.6,16.3,46,24.5
		c12,6.5,24.1,12.9,36.1,19.4c1.6,0.9,1.7,1.5,0.7,3c-9.6,13.6-17.7,28.1-24.5,43.5c-8.6,19.5-14.8,39.7-18.4,60.7
		c-2,11.3-3.2,22.9-3.7,34.5c-0.5,11.5-0.2,22.9,0.7,34.4c0.8,9.9,2.2,19.7,4.2,29.5c0.3,1.7,0,2.5-1.7,3.1
		c-13.3,4.4-26.6,8.9-39.8,13.4c-7.7,2.6-15.5,5.2-23.3,7.8c-1.5,0.6-2,0.1-2.6-1.1c-7.5-17.6-13.8-35.5-18.5-54
		c-3.5-13.6-6.1-27.4-8.1-41.2c-1.4-10.6-2.3-21.1-2.8-31.7C184.1,213.9,184.3,207.4,184.1,200.8z M264.7,297.6
		c0.9-0.8,1.7-1,2.5-1.1c3.9-0.9,5.2-2.6,4.9-6.7c-0.3-4.4-0.7-9-0.9-13.4c-0.8-15-0.2-30.1,1.6-44.9c1.9-15.5,5.1-30.9,9.6-45.9
		c3.6-12,8.1-23.7,13.4-35.1c1.5-3.3,2.5-6.2-0.9-9c0.9-0.3,1.8-0.5,2.4-0.9c1.5-1.2,3.3-2.3,4.8-3.5c1.7-1.4,3.1-3.5,2.6-5.8
		c-0.6-2.7-0.9-5.4-2.5-7.8c-0.6-0.9-1.4-1.8-2.3-2.3c-3.5-1.7-7-3.4-10.7-4.9c-2-0.8-4.4,0-5.4,1.8c-0.8,1.2-1.8,1.6-3.1,1.9
		c0.1-2.4,0.9-4.3,1.8-6.2c1.4-3,0.3-5.6-2.5-6.9c-1.5-0.7-3-1.5-4.4-2.2c-9.6-4.7-19.2-9.4-28.8-14c-3.3-1.6-5.8-0.5-7.5,2.8
		c-0.9,1.7-1.6,3.6-3.2,5.1c-0.9-1-0.9-2.2-1-3.3c-0.5-3.2-1.9-5.7-5-6.9c-2.8-1.1-5.4-2.5-8.2-3.7c-3.2-1.5-5.8-0.6-7.4,2.5
		c-0.5,0.8-0.9,1.5-1.7,2c-2.8,1.9-4,6.4-2.6,9.5c0.2,0.3,0.3,0.8,0.5,1.2c0.2,4.8,2.6,7.9,7.3,9.4c-1.1,0.1-2.2,0.1-3.2,0.1
		c-1.2,0-2.5-0.3-3.7-0.6c-2.5-0.6-5.1,0.8-5.8,3.1c-0.5,1.6-0.9,3.2-1.4,4.7c-3,10.8-5.4,21.8-7.5,32.8c-2.4,13.1-4,26.2-4.9,39.4
		c-0.7,9.5-0.8,19.2-0.7,28.8c0.1,16.5,1.7,32.7,4.1,48.9c1.7,11.3,4.2,22.7,6.8,33.8c0.9,3.9,3.1,5.7,6.9,5.8
		c1.5,0.1,3.2,0.3,4.3,1.9c-1,0.2-1.9,0.3-2.8,0.7c-2,0.7-3.6,2-3.5,4.3c0.1,2.5,0,5.1,0.5,7.5c0.8,4.3,4,7,7.1,9.6
		c1.4,1.1,3.3,1.5,5.1,0.8c2-0.8,4.2-1.2,6.2-2.2c1.5-0.6,1.8-0.2,2.5,0.8c1.4,1.9,3.4,2.6,5.7,1.9c6.8-1.8,13.6-3.7,20.3-5.7
		c4.4-1.2,5.3-2.7,4.8-7.4c1.7,0.8,3.4,1.6,5.3,1c2.3-0.8,4.4-1.5,6.7-2.2c1.7-0.5,2.7-1.9,3-3.6c0.3-4.3,1.8-8.7-2.2-12.6
		C269.6,299.5,267.9,297.7,264.7,297.6z"/>
	<path class="st1" d="M159.2,101.7c7.3,0.9,15,1.8,22.6,2.7c3,0.3,5.9,0.8,8.9,1c1.4,0.1,1.7,0.5,1.2,1.8
		c-3.9,13.8-6.7,27.9-8.9,42.2c-1.4,8.9-2.4,17.8-3,26.8c-0.1,1.6-0.6,2-2.2,2c-11.9,0.5-21.6,8.6-25.2,19.4
		c-5.3,15.9-0.8,29.7,9.2,42.2c5,6.2,11.5,10.7,19.3,12.7c0.9,0.2,1.2,0.8,1.4,1.6c2.3,17.5,5.9,34.6,10.9,51.5
		c0.5,1.4-0.1,1.5-1.2,1.8c-3.2,1-4.5-0.6-6.1-3.1c-7.9-12.4-15.1-25.2-21.4-38.5c-8.3-17.5-15.2-35.4-20.5-54
		c-4-13.7-7-27.7-9.4-41.9c-1.7-10.4-3-21-3.6-31.6c-0.1-2.4-0.5-4.8-0.5-7.3c0-0.8,0-1.5,1.1-1.6c7.8-0.5,13.6-4.5,18.3-10.4
		c3.7-4.8,6-10.3,6.8-16.3C156.9,101.6,156.9,101.6,159.2,101.7z"/>
	<path class="st1" d="M170.9,309.3c-4.9-3.5-9.3-7.5-13.8-11.5c-8.6-7.5-16.7-15.5-24.5-23.8c-5.3-5.6-10.3-11.5-15.2-17.5
		c-11.1-13.7-21.1-28.1-30.1-43.2c-8.7-14.9-16.3-30.3-22.9-46.3c-0.5-1.1-0.3-1.7,0.8-2.3c11.5-5.9,16.2-18.4,14.8-30.5
		c-0.6-4.8-0.7-4.8,4-5.8c8.3-1.8,16.6-3.5,24.9-5.4c2-0.5,2.4,0,2.5,1.9c0.5,7.6,1,15.2,1.9,22.7c1.7,15.3,4.3,30.5,7.9,45.5
		c0.6,2,0.5,3.3-1.7,4.7c-10.8,6.9-14.6,20.7-11.7,32.6c2.4,9.6,7.7,17.3,15.3,23.6c6.4,5.3,13.6,8.7,21.8,10
		c1.2,0.2,1.7,1.1,2.2,2.2c5.8,12.3,12.5,24.2,19.6,35.7c1.5,2.4,3.3,4.7,4.4,7.3C171,309.2,170.9,309.2,170.9,309.3z"/>
	<path class="st1" d="M208.1,348.4c-3.2-3.7-6.4-7.4-9.5-11.1c-14-16.7-26.1-34.5-36.7-53.5c-7.8-14-14.6-28.5-20.5-43.4
		c-5.2-13.3-9.6-26.9-13.4-40.7c-3-10.9-5.2-21.9-7-32.9c-1.1-7.1-2.3-14.4-3.1-21.7c-1.7-16.1-2.4-32.2-2-48.3
		c0.1-5.3,0.6-10.7,0.8-16c0.1-1.6,0.8-1.9,2.2-1.7c12.9,2.2,26,4.3,38.9,6.5c12.3,2,24.4,4,36.7,5.9c1.5,0.2,2.2,0.7,1.5,2.4
		c-0.7,1.8-1.4,3.6-1.7,5.4c-0.3,1.6-1.2,1.7-2.4,1.5c-11-1.9-22.1-2.8-33.3-4.2c-4.5-0.6-6,0.9-6.8,5.3c-0.2,1.4-0.5,2.8-0.8,4.2
		c-0.1,0.3,0,0.9-0.6,1c-0.5,0.1-0.8-0.3-1-0.7c-0.3-0.5-0.5-1-0.7-1.6c-1.7-3.4-4.4-5.4-8.3-5.3c-2.3,0-4.5-0.5-6.8-0.8
		c-4.4-0.6-6.6,0.9-7.1,5.4c0,0.5-0.1,0.9-0.3,1.1c-2.8,4.1-2.6,6.6,0.5,10.9c1,1.4,1.4,3.1,2.6,4.3c2.3,2,2.6,2.3,8.1,2.7
		c-1.8,1.2-4,1.4-5.9,1.8c-4.9,0.9-6.5,3-5.6,7.8c0.5,2.8,0.5,5.7,0.7,8.5c0.6,9,1.6,17.9,3,26.9c1.6,10.7,3.7,21.3,6.2,31.8
		c3.5,14.4,8.1,28.6,13.4,42.6c7,18.5,15.7,36.2,25.8,53.2c3,5,6,9.9,9.2,14.6c1.8,2.8,3.5,3.4,6.7,2.5c1.4-0.3,2.7-0.3,4-0.3
		c0.3,0,0.8-0.1,0.9,0.3c0.2,0.5-0.2,0.8-0.6,1c-0.3,0.2-0.6,0.3-0.9,0.6c-3,2.4-3.3,4.7-1.1,7.8c0.5,0.6,0.8,1.1,0.9,1.9
		c0.5,3.4,2.4,5.4,5.3,6.8c1.7,0.8,3.2,1.8,4,3.9c1.6,4.4,3.5,8.9,5.2,13.2C208.4,348.3,208.2,348.4,208.1,348.4z"/>
	<path class="st1" d="M74.9,137.1c-0.9,0.1-1.5-0.3-2-1c-3.2-3.4-6.8-4.3-11.2-2.5c-2,0.9-4.4,1-6.6,1.5c-3.2,0.7-4.8,3.1-4.1,6.4
		c0.1,0.7,0.2,1.4,0.1,2.2c-1.1,4.7,0,7.3,4.1,10c0.5,0.3,0.8,0.8,1.2,1.1c2.8,2.8,4.8,3.3,11,2.3c-1.8,1.6-3.5,2.6-5.3,3.5
		c-3.2,1.5-4.2,4-2.8,7.1c5.1,12.9,11.1,25.4,17.7,37.7c7.3,13.4,15.4,26.1,24.3,38.5c6.5,9.1,13.7,17.6,21,26.1
		c9.6,11.3,20.4,21.8,31.4,31.8c6.2,5.7,12.9,10.9,19.6,16.1c1.1,0.9,2.5,1.7,4.1,1.7c0.8,0,1.2,0.3,1.7,1c2.5,3.7,5.6,7,7.8,10.9
		c0.2,0.3,0.8,0.6,0.5,1c-0.5,0.6-0.9,0-1.2-0.2c-17.1-11.5-33.6-23.9-48.6-38.2c-4.9-4.7-10-9.2-14.6-14.1
		c-4.9-5.1-9.5-10.6-14.2-16c-7.5-8.5-14.3-17.5-20.9-26.8c-6.8-9.6-12.9-19.6-18.7-29.8c-10.7-18.8-19.6-38.6-26.9-59
		c-3-8.2-5.6-16.5-7.8-24.9c-0.5-1.8-0.1-2.4,1.7-2.6c9.3-1.5,18.5-3.2,27.7-4.8c12.7-2.3,25.3-4.4,38-6.7c2.2-0.3,4.4-0.6,6.5-1.1
		c1.9-0.5,2.5,0.1,2.4,2c-0.1,1.6,0,3.3,0.2,4.9c0.1,1.4-0.2,2-1.6,2.4c-5.7,1.1-11.3,2.5-17.1,3.7c-4.7,1-9.3,2-14,3.1
		c-2.6,0.6-4.1,2.5-4,5.2c0,1.2,0.3,2.5,0.5,3.9C74.7,134.6,75.3,135.9,74.9,137.1z"/>
	<path class="st2" d="M178.8,207c0.3,7.5,0.7,15,1,22.4c0.1,1.6,0.2,3.2,0.3,4.7c0.2,1.6-0.5,1.7-1.7,1.2c-3.2-1.2-5.3-3.5-6.9-6.4
		c-0.8-1.5-1.6-3-2.2-4.4s-1.2-2-2.8-1.4c-1.8,0.8-2.8,0.2-3-1.8c0-0.2-0.1-0.5-0.1-0.7c-1-3.7-1-3.7,2.5-4.7
		c0.7-0.2,1.1-0.3,1.1-1.2c0-1.5,0.1-2.8,0.2-4.3c0-0.3-0.1-1-0.1-1c-3,0.1-2-2.5-2.5-3.9c-1.6-5-1.5-5.1,3.6-5.9
		c1.6-0.2,3.2-0.1,4.7-0.7c2.4-0.9,3,0.3,3.2,2.3c0.1,0.5,0.2,0.9,0.3,1.5c0.3,2.2,1.2,4.1-1.1,6.4c-2.6,2.4-2.3,5.9-0.7,9.2
		c0.5,0.9,1.1,1.7,2.3,1.5c1.1-0.2,1.2-1.4,1.2-2.2c0.1-2.2,0.1-4.3,0.1-6.4c0-1.4,0-2.8,0-4.2C178.7,207,178.7,207,178.8,207z"/>
	<path class="st1" d="M179.4,188.2c-0.1,1.4-0.2,3.2-0.3,5.1c0,0.5,0.2,1.5-0.8,1c-2.8-1.1-5.7,0.1-8.4,0.3
		c-2.2,0.2-4.2,0.6-6.4,0.9c-3.6,0.5-5.8,3.3-4.7,6.8c0.9,2.8,0.3,5.9,2,8.6c0.5,0.8-0.3,1-0.9,1.4c-2.6,1.7-3.3,3.4-2.4,6.4
		c0.7,2.3,1.4,4.7,2.3,6.9c0.8,1.9,2,3,4,2.8c1.2,0,1.9,0.5,2.5,1.5c2.8,5.6,6.8,9.9,13.4,10.8c1.1,0.1,1.1,1,1.1,1.7
		c0.1,1.5,1,3.6-0.1,4.4c-1,0.8-2.7-0.7-4.1-1.2c-7.4-3.7-12.7-9.6-16.5-16.8c-3.7-7.3-5.6-15-4.4-23.3c1.4-10.9,9.2-19.7,19.9-21.8
		c3.7-0.7,3.9-0.7,3.7,3.2C179.4,187,179.4,187.4,179.4,188.2z"/>
	<path class="st1" d="M126.9,247.2c2-1.2,3.5,0.5,5.1,1.8c2.3,1.9,4.9,3.4,7.8,4.2c1.1,0.3,3.2,3.4,3.1,4.5
		c-0.1,0.8-0.7,0.6-1.1,0.5c-1.8-0.2-3.6-1-5.2-1.7c-11.2-5.1-19.4-13.3-23.3-25.1c-3.4-10.3-1.1-21.2,7.1-28.3
		c0.5-0.3,0.9-0.7,1.4-1c0.9-0.7,1.4-0.5,1.6,0.7c0.6,2.2,1.1,4.4,1.9,6.6c0.5,1.2,0.1,1.9-1.1,2.5c-2.8,1.5-5.7,3-8.5,4.5
		c-2.8,1.7-3.5,4.5-1.8,7.3c1.5,2.4,3,4.7,4.5,7c0.6,0.9,0.7,1.5-0.1,2.4c-1.7,2-1.8,4-0.2,6.2c1.4,2,2.8,3.9,4.2,5.9
		C123.5,246.7,124.9,247.3,126.9,247.2z"/>
	<path class="st2" d="M138.5,247.3c-3.1-1.6-5.1-3.5-6.8-5.7c-1.1-1.5-1.9-1.5-3.2-0.5c-1.5,1.2-2.5,1.1-3.3-0.7
		c-0.1-0.2-0.3-0.5-0.6-0.7c-2.3-3.1-2.3-3.1,0.8-5.1c0.8-0.6,1.1-1,0.7-2c-0.5-0.9-0.7-2-0.9-3.1c-0.2-1-0.1-2.2-1.7-1.4
		c-0.6,0.3-0.8-0.5-1-0.8c-0.9-1.4-1.9-2.8-2.7-4.3c-1.4-2.3-1.4-2.3,1.1-3.5c1.6-0.9,3.3-1.7,4.9-2.6c1.2-0.8,1.9-0.5,2.4,0.9
		c1.9,6.4,4.1,12.6,6.5,18.7C135.7,240,137,243.3,138.5,247.3z"/>
	<path class="st2" d="M62.3,143.5c0-0.3,0-0.6,0-0.9c0-2,0.3-3.9,2.6-4.5c1.7-0.6,3.6,0.3,4.9,2.2c0.7,0.9,0.6,2.7,2.6,1.9
		c0.5-0.2,0.6,0.8,0.7,1.4c0.2,0.5,0,0.9-0.6,0.9c-1.9,0.5-1.4,1.4-0.7,2.6c0.5,0.8,1.5,2,0.6,2.6c-1,0.7-2.7,1.2-3.7,0.9
		c-0.9-0.2-1.7-1.9-0.7-3.2c0.8-1,0.8-2,0.3-3.2c-0.1-0.3-0.5-0.8-0.9-0.8c-0.5,0.1-0.7,0.6-0.7,1c0,1,0.1,2.2,0.2,3.2
		c0.2,3-1.4,5.1-3.9,5.1c-2,0-3.1-1.5-4-2.8c-0.6-0.8-0.8-1.7-2.2-1.5c-0.9,0.2-0.7-0.8-1-1.4c-0.2-0.5-0.1-0.9,0.6-1.1
		c1.7-0.6,1.4-1.6,0.6-2.7c-0.6-0.9-1.5-2.3-0.8-2.8c1-0.9,2.7-1,4.2-1c0.8,0,1.1,2.5,0.5,3.3c-0.8,1-1,1.9-0.6,3.2
		c0.2,0.6,0.6,1,1.2,0.9c0.7-0.1,0.6-0.7,0.6-1.1C62.3,144.8,62.3,144.1,62.3,143.5L62.3,143.5z"/>
	<path class="st2" d="M139.4,114.3c-0.2,0.5-0.3,0.9-0.6,1.4c-0.7,1.6-1.8,2.6-3.5,2.5c-1.8-0.1-2.8-1.4-3.6-3
		c-0.6-1.2,0.2-3.2-2-3.5c-0.7-0.1,0-2,0.9-2.2c1.5-0.2,1.6-1.2,1.2-2.3c-0.2-0.7-0.1-1.2-0.2-1.8c-0.1-1.1,0.3-1.6,1.5-1.4
		c0.6,0.1,1.1,0.1,1.7,0.2c0.6,0.1,1.7-0.3,1.7,0.8c0,0.9,0.6,2.2-0.7,2.8c-0.5,0.2-1,0.6-1.2,1.1c-0.3,0.9-0.6,1.8-0.1,2.7
		c0.1,0.3,0.5,0.5,0.7,0.3c0.9-0.3,0.8-1.2,1-1.9c0.3-0.8,0.5-1.7,0.8-2.4c0.7-1.7,1.7-3.1,3.7-2.8c1.9,0.1,3.1,1.4,3.7,3.1
		c0.5,1.2-0.1,3.1,2,3.4c0.5,0.1,0.2,1,0.1,1.6c0,0.7-0.6,0.6-0.9,0.6c-1.7,0-1.8,0.7-1.4,2.2c0.3,0.9,0.6,2.4-0.2,2.7
		c-1.1,0.6-2.8,0.5-3.9-0.3c-0.9-0.6-0.2-2-0.2-3.2c1.6-0.3,2-1.6,2-3.1c0-0.5-0.2-0.9-0.7-0.9c-0.6-0.1-0.8,0.3-0.9,0.7
		C139.9,112.4,139.7,113.3,139.4,114.3z"/>
	<path class="st1" d="M171.1,309c0.2,0.1,0.3,0.2,0,0.5c0,0-0.2-0.1-0.2-0.2C170.9,309.2,171,309.2,171.1,309z"/>
	<path class="st0" d="M264.7,297.6c3.2,0.1,4.8,1.9,6.8,3.9c4,3.9,2.6,8.2,2.2,12.6c-0.1,1.7-1.2,3.2-3,3.6
		c-2.3,0.7-4.4,1.4-6.7,2.2c-1.8,0.6-3.6-0.1-5.3-1c0.6,4.7-0.5,6.1-4.8,7.4c-6.8,1.9-13.6,3.7-20.3,5.7c-2.3,0.7-4.2,0-5.7-1.9
		c-0.7-0.9-1-1.4-2.5-0.8c-1.9,0.9-4.2,1.4-6.2,2.2c-1.8,0.7-3.6,0.3-5.1-0.8c-3.2-2.6-6.4-5.4-7.1-9.6c-0.5-2.5-0.3-5-0.5-7.5
		c-0.1-2.2,1.5-3.6,3.5-4.3c0.9-0.2,1.8-0.5,2.8-0.7c-1.1-1.6-2.8-1.8-4.3-1.9c-4-0.1-6-1.9-6.9-5.8c-2.7-11.2-5.2-22.5-6.8-33.8
		c-2.4-16.2-3.9-32.5-4.1-48.9c-0.1-9.6,0-19.2,0.7-28.8c0.9-13.2,2.5-26.3,4.9-39.4c2-11,4.5-22,7.5-32.8c0.5-1.6,0.8-3.2,1.4-4.7
		c0.8-2.3,3.3-3.6,5.8-3.1c1.2,0.2,2.5,0.7,3.7,0.6c1,0,2,0,3.2-0.1c-4.8-1.4-7-4.7-7.3-9.4c0-0.5-0.2-0.8-0.5-1.2
		c-1.4-3.2-0.2-7.6,2.6-9.5c0.8-0.6,1.4-1.1,1.7-2c1.6-3.1,4.2-4,7.4-2.5c2.7,1.2,5.3,2.6,8.2,3.7c3.1,1.2,4.5,3.7,5,6.9
		c0.1,1.1,0.1,2.3,1,3.3c1.6-1.4,2.3-3.3,3.2-5.1c1.7-3.3,4.2-4.4,7.5-2.8c9.6,4.7,19.2,9.3,28.8,14c1.5,0.7,3,1.5,4.4,2.2
		c2.8,1.5,3.9,4,2.5,6.9c-0.9,1.9-1.7,3.9-1.8,6.2c1.4-0.2,2.4-0.7,3.1-1.9c1-1.7,3.5-2.6,5.4-1.8c3.6,1.5,7.1,3.1,10.7,4.9
		c0.9,0.5,1.7,1.4,2.3,2.3c1.6,2.4,2,5.2,2.5,7.8c0.5,2.3-1,4.4-2.6,5.8c-1.5,1.2-3.2,2.3-4.8,3.5c-0.6,0.5-1.4,0.6-2.4,0.9
		c3.4,2.7,2.5,5.7,0.9,9c-5.3,11.3-9.8,23-13.4,35.1c-4.5,15-7.7,30.3-9.6,45.9c-1.8,14.9-2.4,30-1.6,44.9c0.2,4.4,0.6,9,0.9,13.4
		c0.3,4.1-1,5.8-4.9,6.7C266.4,296.6,265.6,296.8,264.7,297.6z M195.6,212.5c0.1,0,0.2,0,0.3,0c0,3.5-0.1,7.1,0,10.7
		c0.5,13.5,1.5,26.9,3.5,40.2c1.7,11.2,4,22.5,6.6,33.5c0.6,2.6,1.1,5,4.7,4.5c0.3,0,0.8,0.2,1.2,0.3c5.2,1.6,8.7,5.4,12.1,9.3
		c1,1.1,2.6,1.9,3.1,3.5c1.1,3.7,3.4,6.9,4.3,10.7c0.3,1.1,0.8,1.6,2.2,1.2c6.2-1.8,12.6-3.5,19-5.2c0.9-0.2,1.5-0.5,1-1.6
		c-0.2-0.7-0.2-1.4-0.2-2.2c-0.6-6.6-1-13.1,3.2-19c2.4-3.4,5.2-6,9.2-7.1c1.2-0.3,1.5-0.9,1.4-2c-0.5-5.8-1-11.5-1.1-17.3
		c-0.6-20.1,1-39.9,4.8-59.7c2.4-12.7,5.7-25.1,9.8-37.3c3-8.9,6.5-17.5,10.3-26c1.4-3.1,1.4-3.1-1.7-4.7
		c-11.6-6.1-16.7-18.8-12.1-30.8c0.8-2,0.2-2.8-1.5-3.6c-9.9-4.7-19.6-9.4-29.4-14.2c-1.4-0.7-2-0.7-3,0.9c-7,12.5-17,19.5-32,17.3
		c-1-0.1-1.5,0.2-1.7,1.1c-0.6,2-1.1,4.1-1.7,6.1c-2.5,9.1-4.5,18.3-6.2,27.5c-2.7,14.8-4.7,29.6-5.2,44.6
		C196.2,199.7,195.8,206.1,195.6,212.5z M215.8,99.4c0.1,2.2,0.7,3.6,2.5,4.4c1.8,0.8,3.2-0.1,4.3-1.4c0.7-0.7,1.1-1.6,1.7-2.4
		c0.5-0.6,0.8-1.4,1.7-1.5c0.5,0,0.7,0.3,0.7,0.7c0,0.9-0.3,1.7-1.1,2.2c-0.2,0.2-0.6,0.5-0.9,0.5c-1.8,0.2-1.5,1.8-1.9,2.8
		c-0.1,0.3,3.4,2.2,3.9,1.9c0.9-0.6,1.1-1.7,1.1-2.6c-0.1-1.7,0.3-2.2,1.9-1.6c0.5,0.2,0.9,0.5,1.1-0.2c0.1-0.6,0.9-1.4,0.1-1.7
		c-1.5-0.7-0.9-1.8-0.8-2.8c0.3-2.2-0.6-4.1-2.3-4.8c-2-0.8-3.6,0-4.9,1.6c-0.6,0.7-0.9,1.5-1.5,2c-0.5,0.6-0.8,1.7-1.7,1.1
		c-0.8-0.6-0.2-1.6,0.1-2.3c0.3-0.6,0.8-1,1.5-1.1c1.9-0.1,2.4-1.8,2-2.8c-0.3-1.5-2.4-1.8-3.6-2c-1-0.1-1.2,1.6-1.4,2.6
		c-0.1,1.2-0.3,2.4-2,1.9c-0.6-0.1-0.9-0.3-1.1,0.3c-0.1,0.6-0.7,1.4-0.2,1.6C217.2,96.8,215.6,98.5,215.8,99.4z M292.3,123.3
		c-0.9-0.5-1.7-0.9-2.6-1.4c-1.7-0.9-2.5-0.6-2.7,1.4c-0.2,1.5-0.8,2-2.2,1.5c-0.7-0.3-1-0.1-1.2,0.6c-0.2,0.5-0.8,1,0.2,1.4
		c0.8,0.2,0.8,0.8,0.6,1.6c-0.6,1.8-0.2,3.4,1.6,4.4c1.8,1,3.7,0.8,5.3-0.7c0.8-0.7,1.5-1.5,2.4-2.2c0.3-0.3,0.9-0.7,1.4-0.2
		c0.6,0.6,0.2,1-0.1,1.5c-0.5,0.6-1.2,0.7-1.9,0.9c-0.5,0.1-0.9,0-1.2,0.6c-1.2,1.8,0,2.3,1.4,2.7c1.4,0.6,2.8,1.1,3-0.9
		c0.2-1.8,0.8-2,2.3-1.4c0.6,0.2,0.9,0.1,1.2-0.5c0.3-0.6,0.5-1-0.3-1.2c-0.9-0.2-0.6-0.9-0.5-1.6c0.3-1.9,0.2-3.5-1.8-4.5
		c-1.8-0.9-3.9-0.7-5.4,0.9c-0.6,0.6-1,1.1-1.6,1.7c-0.5,0.3-1.1,0.9-1.7,0.2c-0.5-0.7,0-1.2,0.5-1.7c0.3-0.5,0.8-0.7,1.2-0.7
		C291.3,125.8,291.7,124.6,292.3,123.3z M216.1,321c-1.1-1.5-1.5-2.7-1-4c0.3-0.9,0.2-1.6,0.1-2.5c-0.2-1.8-1.4-1.2-2.5-1
		c-1.6,0.2-0.7,1.2-0.6,1.9c0.2,1.4,1.9,2.7,0,4.3c-0.2,0.1,0.2,1.7,0.5,1.7c1.6,0.1,1.6,1.6,2.3,2.5c0.8,1.2,1.5,2.7,3.2,2.4
		c2-0.6,1.4-2.5,1.6-4c0-0.3-0.3-0.8-0.3-1.2c-0.1-1-0.5-2,0.1-3c0.7,1.1,1.2,2.2,0.6,3.5c-0.6,1.1,0,2.2,0.5,3.1
		c0.6,1.1,1.5,0.2,2.3,0.1c0.9-0.1,0.6-0.8,0.5-1.4c-0.2-1.5-2.5-3,0-4.4c-0.5-0.6-0.1-1.7-0.9-1.8c-1.2-0.1-1.1-1-1.6-1.7
		c-0.5-0.8-0.8-1.5-1.4-2.2c-1.4-1.5-3-1.1-3.5,0.8c-0.3,0.9-0.3,1.9,0,3C216.4,318.1,216.5,319.3,216.1,321z M265.7,307.1
		c0.9,1.5,0.8,2.6-0.1,3.7c-0.7,0.9,0,1.9,0.5,2.5c0.3,0.6,1.2-0.1,1.9-0.2c1.2-0.3,0.5-1.1,0.3-1.7c-0.2-1.2-1-2.5,0.8-3.3
		c0.1-0.1,0.1-1.1,0-1.1c-1.7-0.6-1.6-2.3-2.4-3.4c-1-1.4-2.5-1.2-3.5,0.1c-0.3,0.5-0.2,1.1-1,1.4c0.1-2-1-1.7-2.3-1.4
		c-1.7,0.5-0.9,1.6-0.7,2.4c0.3,1.1,0.8,2-0.7,2.8c-0.7,0.3,0,1.6,0.1,1.7c1.7,0.2,1.5,1.8,2.2,2.8c0.6,0.8,1.1,1.6,2.2,1.4
		c1-0.2,1.6-0.9,1.8-1.9c0.2-0.8,0.2-1.7,0.2-2.5C265.3,309.3,264.9,308.2,265.7,307.1z"/>
	<path class="st0" d="M139.4,114.3c0.2-0.9,0.5-1.9,0.8-2.8c0.1-0.5,0.5-0.8,0.9-0.7c0.5,0.1,0.7,0.5,0.7,0.9c0.1,1.5-0.3,2.7-2,3.1
		C139.7,114.5,139.5,114.4,139.4,114.3z"/>
	<path class="st1" d="M195.6,212.5c0.2-6.4,0.6-12.7,0.8-19c0.6-15,2.5-29.8,5.2-44.6c1.7-9.2,3.7-18.4,6.2-27.5
		c0.6-2,1.1-4.1,1.7-6.1c0.2-0.9,0.7-1.2,1.7-1.1c15,2.3,25-4.8,32-17.3c0.9-1.6,1.5-1.6,3-0.9c9.8,4.8,19.6,9.5,29.4,14.2
		c1.7,0.8,2.3,1.5,1.5,3.6c-4.5,11.9,0.6,24.7,12.1,30.8c3,1.6,3.1,1.6,1.7,4.7c-3.9,8.5-7.4,17.1-10.3,26
		c-4.1,12.3-7.4,24.6-9.8,37.3c-3.7,19.7-5.3,39.6-4.8,59.7c0.1,5.8,0.7,11.5,1.1,17.3c0.1,1.2-0.1,1.7-1.4,2
		c-4.1,1-6.8,3.7-9.2,7.1c-4.2,5.9-3.7,12.4-3.2,19c0.1,0.7,0,1.5,0.2,2.2c0.5,1.1-0.2,1.4-1,1.6c-6.4,1.7-12.6,3.4-19,5.2
		c-1.2,0.3-1.8,0-2.2-1.2c-1-3.7-3.2-6.9-4.3-10.7c-0.5-1.6-2-2.4-3.1-3.5c-3.4-3.9-6.9-7.8-12.1-9.3c-0.5-0.1-0.8-0.3-1.2-0.3
		c-3.5,0.5-4-2-4.7-4.5c-2.6-11.1-4.9-22.2-6.6-33.5c-1.9-13.3-3.1-26.8-3.5-40.2c-0.1-3.5,0-7.1,0-10.7
		C195.8,212.5,195.7,212.5,195.6,212.5z M265.4,212.8c0-19-8.9-32.1-23.5-37.5c-11.2-4-21.3-1.8-30.1,6.4c-6.5,6-9.9,13.7-10.8,22.5
		c-1.5,14.1,1.9,26.7,11.7,37.2c9.2,9.9,22.9,11.7,34.2,4.1C259.5,237,264.7,224.6,265.4,212.8z"/>
	<path class="st2" d="M215.8,99.4c-0.1-0.9,1.4-2.6-0.8-3.5c-0.3-0.1,0.1-1,0.2-1.6c0.2-0.7,0.7-0.6,1.1-0.3c1.7,0.5,1.9-0.6,2-1.9
		c0.1-1.1,0.3-2.7,1.4-2.6c1.2,0.2,3.3,0.6,3.6,2c0.2,1-0.2,2.7-2,2.8c-0.7,0-1.2,0.5-1.5,1.1c-0.3,0.8-1,1.7-0.1,2.3
		c0.9,0.6,1.2-0.6,1.7-1.1c0.6-0.7,0.9-1.4,1.5-2c1.2-1.6,2.8-2.5,4.9-1.6c1.7,0.7,2.6,2.6,2.3,4.8c-0.1,1.1-0.7,2.2,0.8,2.8
		c0.7,0.3,0,1.1-0.1,1.7c-0.2,0.8-0.7,0.5-1.1,0.2c-1.6-0.6-2-0.1-1.9,1.6c0,0.9-0.2,2-1.1,2.6c-0.3,0.2-4-1.6-3.9-1.9
		c0.5-1.1,0.2-2.6,1.9-2.8c0.3,0,0.7-0.2,0.9-0.5c0.7-0.6,1.1-1.2,1.1-2.2c0-0.3-0.2-0.8-0.7-0.7c-0.9,0-1.2,0.9-1.7,1.5
		c-0.6,0.8-1,1.7-1.7,2.4c-1.1,1.2-2.5,2.2-4.3,1.4C216.4,103.2,215.9,101.6,215.8,99.4z"/>
	<path class="st2" d="M292.3,123.3c-0.6,1.2-1,2.5-2.7,2.4c-0.6,0-1,0.2-1.2,0.7c-0.3,0.5-0.9,1-0.5,1.7c0.6,0.7,1.2,0.1,1.7-0.2
		c0.6-0.5,1-1.1,1.6-1.7c1.6-1.6,3.6-1.9,5.4-0.9c1.9,1,2.2,2.6,1.8,4.5c-0.1,0.6-0.5,1.2,0.5,1.6c0.8,0.2,0.7,0.7,0.3,1.2
		c-0.2,0.6-0.7,0.7-1.2,0.5c-1.5-0.7-2-0.5-2.3,1.4c-0.2,2-1.7,1.5-3,0.9s-2.6-1-1.4-2.7c0.3-0.6,0.8-0.5,1.2-0.6
		c0.7-0.2,1.4-0.3,1.9-0.9c0.3-0.5,0.7-1,0.1-1.5c-0.5-0.5-1-0.1-1.4,0.2c-0.8,0.7-1.6,1.5-2.4,2.2c-1.6,1.5-3.4,1.7-5.3,0.7
		c-1.8-0.9-2.2-2.5-1.6-4.4c0.2-0.7,0.2-1.2-0.6-1.6c-0.9-0.3-0.3-0.9-0.2-1.4c0.2-0.7,0.6-0.9,1.2-0.6c1.5,0.7,1.9,0.1,2.2-1.5
		c0.2-1.9,1-2.3,2.7-1.4C290.5,122.3,291.4,122.8,292.3,123.3z"/>
	<path class="st2" d="M216.1,321c0.3-1.7,0.2-2.8-0.1-4c-0.3-1-0.2-1.9,0-3c0.6-1.9,2.2-2.3,3.5-0.8c0.6,0.7,0.9,1.4,1.4,2.2
		c0.3,0.7,0.3,1.6,1.6,1.7c0.8,0,0.6,1.2,0.9,1.8c-2.5,1.5-0.1,3,0,4.4c0.1,0.6,0.5,1.2-0.5,1.4c-0.8,0.1-1.7,1-2.3-0.1
		c-0.5-0.9-1.1-1.9-0.5-3.1c0.7-1.4,0.1-2.4-0.6-3.5c-0.6,1-0.2,2-0.1,3c0,0.5,0.3,0.8,0.3,1.2c-0.2,1.5,0.5,3.5-1.6,4
		c-1.7,0.5-2.4-1.1-3.2-2.4c-0.6-0.9-0.7-2.3-2.3-2.5c-0.2,0-0.7-1.5-0.5-1.7c1.8-1.5,0.2-2.8,0-4.3c-0.1-0.7-1.1-1.6,0.6-1.9
		c1.1-0.2,2.3-0.8,2.5,1c0.1,0.9,0.2,1.6-0.1,2.5C214.7,318.2,215,319.5,216.1,321z"/>
	<path class="st2" d="M265.7,307.1c-0.8,1.2-0.6,2.3-0.7,3.2c-0.1,0.8-0.1,1.7-0.2,2.5c-0.2,0.9-0.8,1.7-1.8,1.9
		c-1,0.2-1.7-0.6-2.2-1.4c-0.7-1-0.5-2.6-2.2-2.8c-0.1,0-0.7-1.4-0.1-1.7c1.5-0.8,0.9-1.7,0.7-2.8c-0.2-0.8-1-1.9,0.7-2.4
		c1.2-0.3,2.4-0.6,2.3,1.4c0.9-0.2,0.7-1,1-1.4c1-1.4,2.5-1.5,3.5-0.1c0.9,1.1,0.7,2.8,2.4,3.4c0.1,0,0.2,1.1,0,1.1
		c-1.8,0.8-0.9,2-0.8,3.3c0.1,0.6,0.8,1.5-0.3,1.7c-0.7,0.1-1.6,0.8-1.9,0.2c-0.5-0.7-1.1-1.6-0.5-2.5
		C266.5,309.7,266.7,308.6,265.7,307.1z M262.3,306.3c-0.5,0-0.7,0.3-0.8,0.6c-0.5,0.9-0.5,1.8,0.1,2.6c0.1,0.1,0.5,0.2,0.6,0.1
		c0.7-0.7,0.2-1.5,0.3-2.3C262.6,307.1,262.7,306.7,262.3,306.3z"/>
	<path class="st0" d="M265.4,212.8c-0.7,11.8-6,24.2-18.4,32.6c-11.2,7.6-25,5.9-34.2-4.1c-9.8-10.6-13.2-23.2-11.7-37.2
		c0.9-8.7,4.3-16.3,10.8-22.5c8.6-8.2,18.8-10.3,30.1-6.4C256.7,180.7,265.4,193.8,265.4,212.8z M205.8,209.8
		c0.1,2.4,0.1,4.8,0.6,7.3c1.5,8.2,4.7,15.4,10.7,21.4c7.7,7.6,18,8.9,26.9,2.8c11.6-7.9,16.7-19.3,16.3-33.1
		c-0.3-13.8-9.3-25.1-22.6-28.8c-9.9-2.7-19.3,1.6-24.7,8.4C208,194.3,205.7,201.7,205.8,209.8z"/>
	<path class="st0" d="M262.3,306.3c0.3,0.3,0.2,0.8,0.2,1.1c-0.1,0.8,0.3,1.6-0.3,2.3c-0.1,0.1-0.5,0-0.6-0.1
		c-0.6-0.8-0.6-1.7-0.1-2.6C261.7,306.5,261.9,306.3,262.3,306.3z"/>
	<path class="st1" d="M205.8,209.8c-0.2-8.2,2-15.7,7.1-22c5.4-6.9,14.9-11.2,24.7-8.4c13.3,3.7,22.2,15,22.6,28.8
		c0.3,13.7-4.8,25.2-16.3,33.1c-8.9,6-19.2,4.8-26.9-2.8c-6-5.9-9.2-13.2-10.7-21.4C205.9,214.7,205.9,212.3,205.8,209.8z
		 M207,209.8h-0.1c0,1.2,0,2.4,0,3.6c0.1,1.6,0.7,3.2,2.2,3.6c2.4,0.8,2.8,2.5,3.1,4.7c0.1,0.7,0.2,1.2,0.5,1.8
		c2.8,9.4,10.7,14,19.2,10.2c0.5-0.2,0.9-0.5,1.4-0.3c4.4,1.8,9.2,1.4,13.8,1.7c3.1,0.1,5-1.6,5.3-4.7c0.2-2,0.3-4.1,0.5-6.1
		c0.1-0.8,0.2-1.5,1.4-1.8c3-0.7,4.1-2.2,4.4-5.2c0.2-1.6,0.3-3.2,0.7-4.7c0.6-2.3-0.1-4.3-1.9-5.2c-2.5-1.1-2.6-3.2-3-5.2
		c-0.2-1-0.5-2.2-0.8-3.1c-2.7-7-7.9-9.9-14.5-9.6c-2.2,0.1-4.4,1-6.2-1c-0.3-0.3-0.9-0.3-1.4-0.5c-4-0.7-7.9-1.5-11.9-2.2
		c-3.1-0.5-5.8,1.9-6,5c-0.1,2.8-0.6,5.7-0.8,8.5c-0.1,0.8-0.2,1.2-1.1,1.5c-2.7,0.6-4.1,2.3-4.4,5C206.8,207.2,207,208.6,207,209.8
		z"/>
	<path class="st0" d="M207,209.8c0-1.2-0.1-2.6,0-3.9c0.2-2.8,1.6-4.4,4.4-5c0.9-0.2,1.1-0.7,1.1-1.5c0.2-2.8,0.7-5.7,0.8-8.5
		c0.2-3.1,3-5.4,6-5c4,0.7,7.9,1.4,11.9,2.2c0.5,0.1,1.1,0.1,1.4,0.5c1.8,2,4.1,1,6.2,1c6.6-0.2,11.8,2.7,14.5,9.6
		c0.3,1,0.7,2,0.8,3.1c0.3,2,0.5,4.1,3,5.2c1.8,0.9,2.5,3,1.9,5.2c-0.3,1.5-0.5,3.1-0.7,4.7c-0.3,3.1-1.5,4.5-4.4,5.2
		c-1.1,0.2-1.2,1-1.4,1.8c-0.2,2-0.2,4.1-0.5,6.1c-0.3,3-2.3,4.8-5.3,4.7c-4.7-0.2-9.4,0.2-13.8-1.7c-0.6-0.2-0.9,0.1-1.4,0.3
		c-8.5,3.7-16.3-0.8-19.2-10.2c-0.2-0.6-0.3-1.2-0.5-1.8c-0.2-2.2-0.7-3.9-3.1-4.7c-1.5-0.5-2-2-2.2-3.6c0-1.2,0-2.4,0-3.6
		C206.8,209.8,207,209.8,207,209.8z M249.9,207.1c-0.1-0.9-0.1-2-0.2-3.1c-0.6-3.9-3.5-8.7-8.2-9.1c-4.5-0.3-8.2,1.6-10.1,6.2
		c-1.6,3.6-2.8,7.5-4.2,11.1c-0.3,0.9-0.9,1.5-1.9,1.5c-0.9-0.1-1.2-0.8-1.6-1.6c-0.9-3.1,0.3-7.8,3.3-9c2.8-1.1,3.1-3,3.2-5.3
		c0-1,0.1-2,0.5-3c0.5-1.5-0.2-1.7-1.4-1.9c-2.3-0.5-4.5-0.7-6.7-1.2c-3.9-0.8-4.1-0.9-4.2,3c0,1.9-2.2,4.5,1.1,6c0,0,0,0.2,0,0.3
		c-0.7,1.7-1.5,3.4-2.3,5.1c-0.3,0.7-0.9,0.3-1.4,0.2c-3.6-0.3-3.6-0.3-3.7,3.3c0,0.3,0,0.7,0,1c-0.3,1.9,0.3,2.8,2.3,2.6
		c1.7-0.2,2,0.7,2.2,2.3c0.1,3.7,0.8,7.5,3,10.8c3,4.4,8.7,5,12.5,1c1.5-1.6,2.5-3.4,3.3-5.4c1.1-3.2,2.2-6.5,3.3-9.6
		c0.5-1.1,0.9-2.5,2.4-2.3c1.5,0.2,1.6,1.6,1.6,2.8c0.1,3.1-1,5.7-3.6,7c-2.3,1.2-2.4,2.7-2.4,4.8c0,1.1,0,2.3-0.1,3.4
		c-0.1,1,0.1,1.5,1.2,1.5c2.8,0.1,5.7,0.3,8.5,0.5c0.3,0,0.8,0,1-0.1c0.5-0.2,1-7.8,0.6-7.9c-3-0.3-0.7-1.8-0.5-2.5
		c0.3-1,0.3-2.6,2.4-2.4c1.2,0.1,2.8,1.1,3.6,0.2c0.9-0.9,0.5-2.6,0.7-3.9c0-0.1,0-0.3,0.1-0.5c0.5-1.2,0-1.9-1.4-1.8
		c-2.3,0.1-3.5-0.6-2.8-3.2C249.9,207.8,249.9,207.5,249.9,207.1z"/>
	<path class="st2" d="M249.9,207.1c0,0.3,0.1,0.7,0,0.9c-0.7,2.6,0.7,3.3,2.8,3.2c1.4-0.1,1.8,0.6,1.4,1.8c0,0.1,0,0.2-0.1,0.5
		c-0.2,1.4,0.2,3.1-0.7,3.9c-0.9,0.9-2.5-0.1-3.6-0.2c-2-0.2-1.9,1.4-2.4,2.4c-0.2,0.7-2.6,2.2,0.5,2.5c0.3,0-0.2,7.7-0.6,7.9
		c-0.3,0.1-0.7,0.1-1,0.1c-2.8-0.1-5.7-0.3-8.5-0.5c-1.1,0-1.4-0.5-1.2-1.5c0.1-1.1,0.1-2.3,0.1-3.4c0-2,0.1-3.6,2.4-4.8
		c2.5-1.4,3.6-4.1,3.6-7c0-1.2-0.2-2.6-1.6-2.8c-1.5-0.2-2,1.1-2.4,2.3c-1.1,3.2-2.2,6.5-3.3,9.6c-0.7,2-1.7,3.9-3.3,5.4
		c-3.6,4-9.4,3.4-12.5-1c-2.2-3.3-2.8-6.9-3-10.8c-0.1-1.6-0.3-2.4-2.2-2.3c-2,0.2-2.7-0.8-2.3-2.6c0.1-0.3,0-0.7,0-1
		c0.1-3.6,0.1-3.6,3.7-3.3c0.5,0,1,0.3,1.4-0.2c0.8-1.7,1.5-3.4,2.3-5.1c0-0.1,0.1-0.3,0-0.3c-3.3-1.5-1.1-4.1-1.1-6
		c0.1-3.9,0.3-3.7,4.2-3c2.3,0.5,4.4,0.8,6.7,1.2c1.1,0.2,1.8,0.5,1.4,1.9c-0.3,0.9-0.5,1.9-0.5,3c-0.1,2.4-0.3,4.2-3.2,5.3
		c-3,1.1-4.2,6-3.3,9c0.2,0.8,0.7,1.5,1.6,1.6c1,0.1,1.6-0.6,1.9-1.5c1.4-3.7,2.6-7.5,4.2-11.1c1.9-4.7,5.6-6.6,10.1-6.2
		c4.7,0.3,7.7,5.2,8.2,9.1C249.7,205.1,249.7,206.1,249.9,207.1z"/>
</g>
</svg>
