<?xml version="1.0" encoding="utf-8"?>
<!-- Generator: Adobe Illustrator 21.1.0, SVG Export Plug-In . SVG Version: 6.00 Build 0)  -->
<svg version="1.1" id="Capa_1" xmlns="http://www.w3.org/2000/svg" xmlns:xlink="http://www.w3.org/1999/xlink" x="0px" y="0px"
	 viewBox="0 0 393.2 213.7" style="enable-background:new 0 0 393.2 213.7;" xml:space="preserve">
<style type="text/css">
	.st0{fill:#FFFFFF;}
	.st1{fill:#D6AF83;}
	.st2{fill:#BB8C5F;}
	.st3{fill:#CFA579;}
	.st4{fill:#C59A6D;}
	.st5{fill:#DCBA94;}
</style>
<g id="uexT1v.tif">
	<g>
		<path class="st0" d="M196.6,198.9c-61.3,0-122.6-0.1-183.9,0.1c-4.7,0-5.6-0.9-5.6-5.6c0.2-53.7,0.2-107.5,0-161.2
			c0-4.7,0.9-5.6,5.6-5.6c122.6,0.2,245.2,0.2,367.9,0c4.7,0,5.6,0.9,5.6,5.6c-0.2,53.7-0.2,107.5,0,161.2c0,4.7-0.9,5.6-5.6,5.6
			C319.2,198.8,257.9,198.9,196.6,198.9z M196.5,192.3c9.6,2.3,11.8-5.7,15.8-11.3c4.6,0.9,9.3,1.1,14,0.7
			c7.8,1.2,14.2-0.7,17.8-8.4c0.8-1.8,2-2.9,4-3c2.9,0.6,5.5,0.2,7.8-1.7c3.8-2,7.2-4.3,7.8-9.1c4.8-0.5,10.5,3.1,14.2-2.9
			c0.5,0,1-0.1,1.5-0.2c4-1.7,6.3-4.5,6.4-9c5.2-0.4,10.4,4,15.6,0c6.3-3,4.3-9,5-14c6.6-1.4,12.5-4.8,16.7-9.4
			c9.8-10.7,22.4-13.9,35.8-16c1.5-0.2,3-0.8,4.5-1.1c14.2-3.2,14.2-3.2,15.6-17.6c0.1-1.5,0.2-3,0.3-4.6c0-1,0.1-2.1,0.1-3.1
			c0.7-15.9-4-29.6-16-40.4c-2.4-2.2-4.9-5-8.8-2.7c-8.8,2.1-17.8,3.7-26.4,6.3c-13.9,4.2-28,5.5-42.3,3c-13.9-7.2-29-5.7-43.7-4.8
			c-6.7,0.4-12.8-0.2-19.2-1.8c-8.8-2.2-17.8-5.6-26.9-2.8c-23,7.1-46.9,9.4-70.1,15.3c-3.9,1-7.6,0.9-11.6,0.4
			C94.6,51.4,76.2,44,58.2,35.9c-12.5-5.6-23.8-2.6-33.3,5.3c-15.2,12.6-15.6,37-2.2,56.1c1.4,3.2,3.3,6,6.1,8
			c1.2,1.9,2.5,3.7,4.7,4.5c23.7,5.7,47.9,9.3,70.6,18.6c1.1,0.5,2.2,0.9,3.3,1.4c0.5,0.3,1,0.4,1.5,0.4c4.1,2.1,8.3,4.3,12.4,6.4
			c0.4,0.5,0.8,0.9,1.3,1.4c0.4,2.9,1.4,5.6,3.4,7.8c0.4,2.5,1.6,4.5,3.4,6.2c3.7,7.5,8.9,13.2,17.2,15.7c2.7,9.7,4.9,11,15.5,8.9
			c1.5-0.8,3.1-1.7,4.6-2.5c1,5.9,1.4,12.3,9.6,12.9c5.4,1.1,8.6-4.6,13.7-4.6C190.1,186.9,190,191.8,196.5,192.3z"/>
		<path class="st1" d="M263.8,159.6c-0.6,4.7-4,7.1-7.8,9.1c-4.3-3.9-5.2-11.6-11.5-12.8c-15-2.9-29.3-9.3-44.9-8.6
			c-0.5,0-0.9,0-1.4,0c-3.1-3.6-6.3,0-9.4,0c-2.1-1.6-4.3-3.1-6.4-4.7c-0.5-0.5-1-1-1.5-1.5c-1.4-3.4-4.4-3.8-7.2-3.1
			c-4.3,1.1-7.9-0.1-11.9-1.4c-11.2-3.8-22.7-7.2-34.1-10.4c-7.2-2-8.2-0.8-6.7,6.5c0.3,1.3,0.2,2.6,0.3,3.9
			c-4.1-2.1-8.3-4.3-12.4-6.4c-0.3-0.7-0.8-1.2-1.5-0.4c-1.1-0.5-2.2-0.9-3.3-1.4c0.4-2.4-2.1-3-3.1-4.6c-0.1-2-1.2-3.1-3.2-3
			c-1.5-0.6-3.1-1.1-4.6-1.7c-1.4-4.7-5.8-4.9-9.5-6.2c-0.2-3.3-3.2-3.8-5.4-4.9c-11.5-6.2-24.4-8.1-37-10.7
			C35,96,28.8,94.2,22.6,97.4c-13.5-19.1-13-43.5,2.2-56.1c9.6-7.9,20.8-10.9,33.3-5.3c18.1,8.1,36.4,15.5,56.2,18.2
			c4,0.5,7.7,0.6,11.6-0.4c23.2-5.9,47.1-8.2,70.1-15.3c9-2.8,18.1,0.6,26.9,2.8c6.3,1.6,12.5,2.1,19.2,1.8
			c14.7-0.9,29.7-2.4,43.7,4.8c3.1,4.7,8.6,2.6,12.5,4.4c18.3,8.3,34.7,1,51.2-5.8c3.5-1.4,5-4.3,5-8c3.9-2.3,6.4,0.6,8.8,2.7
			c12,10.8,16.7,24.5,16,40.4c-15.2-0.6-30.1-0.8-43.4,8.5c-7.8,5.5-16.5,9.8-23.2,16.9c-2.8,3.1-6.8,4.3-9.6,1.5
			c-2.6-2.6-8.6-2.7-7-9.5c1.9-7.9-3.2-13-10.4-15.8c-2.6-0.5-5.2-1.1-7.8-1.6c-1,0-2-0.1-3-0.1c-0.2-1.5,0.1-3.4-1.6-4.1
			c-10.4-4.8-21.3-6.1-32.5-4.9c-2.4,0.3-3.4,2.1-3.6,4.4c-12.7-1.3-24.2,1.7-34.3,9.5c-4.5,3.5-8.7,7.3-13.2,10.7
			c-3,2.3-6.2,5.2-10.4,2c1.2-2.6,2.6-5.2,0.6-8c-1-1.4-2.8-2.2-4.1-1.2c-3.6,2.6-8.7,5-4.1,10.8c2,6.3,6.9,5.6,11.9,5.3
			c8.2-0.4,13-6.5,19.1-10.6c2.1,7.9,4.3,15.9,6.4,23.8c0.5,4.8,3.4,8.1,7.1,10.5c7.5,5,15.4,9.5,22.7,14.7
			C247,149.9,256.5,152.9,263.8,159.6z M218.6,45.4c-4.2-3.4-9.2-3.1-14.2-3.1c-5.7-2.1-9.1,1.7-9,5.9c0.1,6.7-3.2,11.7-5.6,17.3
			c-1.6,3.8-3.4,7.8-3.4,14.4c8.2-8.8,10.8-18.7,16.5-26.5c5.2-1.6,10.4-3.2,15.6-4.7c1.1-0.2,2.7-0.2,2.4-1.9
			C220.8,46.1,219.4,45.8,218.6,45.4z M128.6,86.2c3.3-0.4,7.5,0.9,8.2-3.9c0.8-4.9-3.2-6.5-6.8-6.9c-5.3-0.6-10-2.7-15-4.2
			c-20.2-6-38.8-16.3-59.2-21.8c-5.5-1.5-11.3-1.3-16.7-3.7c-2.5-1.1-5.4-3.4-7.7,0c-2.2,3.2-0.3,5.8,2,8.2c2.5,2.6,5,4,8.8,4.1
			c9.1,0.3,18,2.2,26.5,5.7c11.8,4.8,23.5,9.9,35.5,14.2C112.4,80.9,120.1,84.9,128.6,86.2z"/>
		<path class="st2" d="M179.3,98.9c4.2,3.2,7.4,0.3,10.4-2c4.5-3.4,8.7-7.3,13.2-10.7c10.1-7.8,21.6-10.9,34.3-9.5
			c2.3,1.4,5,2.4,7.4,1.6c10.7-3.9,20.3,1.7,30.4,3.1c1,0,2,0.1,3,0.1c0,1.7,1.2,2.6,2.4,3.7c4.6,3.8,9.9,7.3,4.5,14.7
			c-1.8,2.4,0.8,5.9,2.2,8.6c2.8,5.2,7.1,8.9,11.9,12.4c4.5,3.3,7.5,3.2,12.4,0.3c16-9.5,30.1-21.9,46.7-30.5
			c6.9-3.6,13.7-4.2,20.9-1.5c-1.4,14.4-1.4,14.4-15.6,17.6c-1.5,0.3-3,0.9-4.5,1.1c-13.4,2.1-26,5.2-35.8,16
			c-4.2,4.6-10.1,8.1-16.7,9.4c-1.4-0.6-3.1-0.9-4.1-1.9c-10.1-8.9-20-18-30.2-26.7c-8-6.9-15.4-14.6-25.5-18.6
			c-11.7-9.1-24.8-9.2-34.5-0.1c-4.8,1.4-7.8,4.6-9.5,9.2c-6.1,4.1-10.9,10.2-19.1,10.6c-5,0.3-9.9,1-11.9-5.3
			C174.3,100,176.8,99.4,179.3,98.9z"/>
		<path class="st3" d="M246.7,86.2c10.1,4,17.5,11.7,25.5,18.6c10.2,8.7,20.1,17.9,30.2,26.7c1.1,1,2.8,1.2,4.1,1.9
			c-0.7,5,1.4,11-5,14c0-3.2-2.3-4.5-4.7-5.7c-8.8-4.4-17.5-9.1-26.5-13c-4.2-1.8-7.2-6.7-12.8-5c-4.2-0.5-6.3-4.1-9.4-6.2
			c3.7-6.1,1.1-9.7-4.2-13.3c-8.4-5.8-8.3-8-0.5-13.9C245,89.1,246.7,88.3,246.7,86.2z"/>
		<path class="st3" d="M202.8,95.3c1.6-4.6,4.7-7.8,9.5-9.2c8.8,8,15.2,18.5,25.7,24.6c2.3,1.3,4.4,2.7,5.6,5.1
			c-2.1,6-7.1,2.2-10.7,3.2c-1.7,0.5-3.9-0.3-4.6,2c-0.6,2.1,1.1,3.1,2.6,4.3c7.8,6.1,16.6,10.6,24.9,15.8c7.9,5,18,6.9,23.7,15.3
			c-0.5,0.1-1,0.2-1.5,0.2c-11.2-5-21.4-11.6-32.3-17.2c-12.5-6.4-23.2-15.8-36.6-20.4C207,111.1,204.9,103.2,202.8,95.3z"/>
		<path class="st3" d="M121.3,136.5c-0.1-1.3,0-2.6-0.3-3.9c-1.6-7.3-0.5-8.5,6.7-6.5c11.4,3.2,22.9,6.5,34.1,10.4
			c4,1.4,7.6,2.5,11.9,1.4c2.8-0.7,5.8-0.3,7.2,3.1c-4.5-0.4-8.9-0.3-11.9,3.8c-1.8,2.5-3.4,5.6-1,8.5c2.1,2.6,5.2,2,7.9,1
			c5.5-2,7-6.4,6.5-11.8c2.1,1.6,4.3,3.1,6.4,4.7c-7.4,8.9-14.7,17.8-22.1,26.7c-1.5,0.8-3.1,1.7-4.6,2.5c0-7.7,0.1-15.5,0-23.2
			c0-2,0.7-4.6-1.5-5.6c-9.9-4.5-19.5-11.1-31.3-6.6c-2.2-1-4.4-2.1-6.7-3.1C122.2,137.4,121.8,136.9,121.3,136.5z"/>
		<path class="st1" d="M279.5,156.4c-5.7-8.5-15.7-10.3-23.7-15.3c-8.3-5.2-17.1-9.8-24.9-15.8c-1.5-1.2-3.2-2.2-2.6-4.3
			c0.6-2.3,2.9-1.5,4.6-2c3.6-1,8.6,2.9,10.7-3.2c1.6,0.6,3.1,1.1,4.7,1.7c3.1,2.1,5.2,5.7,9.4,6.2c1.1,1.1,2.2,2.1,3.3,3.2
			c7.9,7.3,18.1,11.9,25,20.5C285.9,151.8,283.5,154.7,279.5,156.4z"/>
		<path class="st3" d="M199.6,147.2c15.6-0.7,29.9,5.7,44.9,8.6c6.3,1.2,7.2,8.9,11.5,12.8c-2.3,1.9-4.9,2.3-7.8,1.7
			c0.2-3-0.3-5-3.8-6.5c-10.6-4.3-21.7-6.2-32.7-8.7c-3.5-0.8-6.2,0.3-5.7,4.8c-0.4,0.5-0.9,0.9-1.3,1.4c-5.4,6.6-11.1,13-14.7,20.9
			c-5.1,0-8.2,5.7-13.7,4.5c2.5-5.2,5.3-10.4,7.6-15.8c2-4.6,4.4-8.4,9.6-9.7C203.8,159.5,205.4,155.8,199.6,147.2z"/>
		<path class="st4" d="M379.1,89.2c-7.2-2.7-14.1-2.1-20.9,1.5c-16.6,8.6-30.7,20.9-46.7,30.5c-4.9,2.9-7.9,3-12.4-0.3
			c-4.8-3.5-9.1-7.2-11.9-12.4c-1.5-2.7-4-6.2-2.2-8.6c5.4-7.4,0.1-10.8-4.5-14.7c-1.3-1.1-2.4-1.9-2.4-3.7c2.6,0.5,5.2,1.1,7.8,1.6
			c5.1,6.6,7.4,13.5,6.7,22.2c-0.5,6,12.4,14,16.7,11.2c9.1-6,18.2-11.9,26.7-18.7c9.5-7.5,18.3-15.4,31.8-13.3
			c3.8,0.6,7.8,0.1,11.7,0.1C379.2,86.2,379.1,87.7,379.1,89.2z"/>
		<path class="st4" d="M129.3,140.9c11.8-4.5,21.4,2.1,31.3,6.6c2.2,1,1.5,3.6,1.5,5.6c0,7.7,0,15.5,0,23.2
			c-10.6,2.1-12.8,0.8-15.5-8.9c2.2-2.4,2.1-5.2-0.3-6.7c-5.4-3.4-10.2-8-16.9-8.9c-1.8-1.7-3-3.7-3.4-6.2
			c7.3,2.6,14.2,5.8,20.5,10.4c1.7,1.2,3.5,2.9,5.2,0.4c1.6-2.4-0.5-3.9-2.1-5c-1.4-1-3.1-2.1-4.8-2.3
			C138.7,148.1,133.8,144.9,129.3,140.9z"/>
		<path class="st4" d="M206,159.9c-0.5-4.5,2.3-5.6,5.7-4.8c11,2.5,22.1,4.4,32.7,8.7c3.5,1.4,4,3.4,3.8,6.5c-2,0.1-3.2,1.2-4,3
			c-3.6,7.7-10,9.6-17.8,8.4c-0.3-7.1-5.6-8.4-11-9.5c-0.2-2.1,0.8-4.6-1.5-6.2C213.7,157.1,213.6,157,206,159.9z"/>
		<path class="st3" d="M379.3,84.6c-3.9,0-7.9,0.5-11.7-0.1c-13.5-2.2-22.3,5.8-31.8,13.3c-8.5,6.8-17.6,12.7-26.7,18.7
			c-4.3,2.8-17.2-5.2-16.7-11.2c0.7-8.7-1.6-15.7-6.7-22.2c7.2,2.8,12.3,7.9,10.4,15.8c-1.6,6.9,4.3,6.9,7,9.5
			c2.9,2.8,6.8,1.6,9.6-1.5c6.6-7.2,15.3-11.4,23.2-16.9c13.3-9.3,28.3-9.1,43.4-8.5C379.4,82.5,379.4,83.6,379.3,84.6z"/>
		<path class="st4" d="M209.2,119c13.4,4.6,24.2,14,36.6,20.4c10.8,5.5,21.1,12.2,32.3,17.2c-3.7,6-9.4,2.5-14.2,2.9
			c-7.3-6.6-16.9-9.6-24.8-15.3c-7.3-5.2-15.2-9.7-22.7-14.7C212.5,127.1,209.7,123.8,209.2,119z"/>
		<path class="st4" d="M354.6,38.4c0,3.7-1.5,6.6-5,8c-16.5,6.7-32.9,14.1-51.2,5.8c-4-1.8-9.4,0.3-12.5-4.4
			c14.4,2.5,28.4,1.2,42.3-3C336.8,42.1,345.8,40.5,354.6,38.4z"/>
		<path class="st4" d="M193.4,161.3c-5.2,1.2-7.6,5.1-9.6,9.7c-2.3,5.3-5,10.5-7.6,15.8c-8.2-0.6-8.6-6.9-9.6-12.8
			c7.4-8.9,14.7-17.8,22.1-26.7c3.1,0,6.3-3.6,9.4,0c-2.8,1.2-5.6,2.5-7.5,5.1C187.7,156.4,187.5,159.8,193.4,161.3z"/>
		<path class="st3" d="M22.8,97.1c6.2-3.2,12.5-1.4,18.7-0.1c12.6,2.7,25.4,4.5,37,10.7c2.2,1.2,5.1,1.6,5.4,4.9c0,0.5,0,1.1,0,1.6
			c-1,0-2.1,0-3.1-0.1c-0.6-3.6-3.5-4.2-6.4-4.6c-10.5-1.6-20.9-3.4-31.5-4.6c-4.6-0.5-9.4-4.3-14,0.1
			C26.1,103.1,24.2,100.3,22.8,97.1z"/>
		<path class="st2" d="M80.8,114.3c1,0,2.1,0,3.1,0.1c2.6,2.6,5.8,4.1,9.5,4.6c1.5,0.6,3.1,1.1,4.6,1.7c0.1,2,1.2,3.1,3.2,3
			c0.9,1.6,3.4,2.2,3.1,4.6c-22.7-9.3-46.9-12.9-70.6-18.6c1.7-0.6,3.1-1.6,5.2-1.3C52.8,110.4,66.8,112.3,80.8,114.3z"/>
		<path class="st4" d="M285.9,147.4c-6.9-8.5-17.1-13.2-25-20.5c-1.1-1-2.2-2.1-3.3-3.2c5.5-1.8,8.6,3.2,12.7,5
			c9,3.8,17.7,8.6,26.5,13c2.4,1.2,4.7,2.5,4.7,5.7C296.3,151.4,291.1,147,285.9,147.4z"/>
		<path class="st3" d="M213.8,166c2.3,1.6,1.3,4,1.5,6.2c-2.1,2.6-2.9,5.6-3,8.8c-4,5.6-6.2,13.6-15.8,11.3
			c0.6-9.2,6.5-16.4,9.4-24.7C208.7,167.7,211.4,167.5,213.8,166z"/>
		<path class="st4" d="M80.8,114.3c-14-2-28-3.9-42-5.9c-2-0.3-3.5,0.7-5.2,1.3c-2.2-0.8-3.5-2.6-4.7-4.5c4.6-4.4,9.4-0.6,14-0.1
			c10.5,1.2,21,3,31.5,4.6C77.3,110.1,80.2,110.6,80.8,114.3z"/>
		<path class="st4" d="M206,167.6c-3,8.3-8.9,15.5-9.4,24.7c-6.6-0.5-6.4-5.4-6.6-10.1c3.7-7.8,9.3-14.3,14.7-20.9
			C204.6,163.5,203.8,165.8,206,167.6z"/>
		<path class="st2" d="M129.3,140.9c4.5,4,9.4,7.1,15.5,8.1c1.7,0.3,3.4,1.3,4.8,2.3c1.6,1.2,3.7,2.6,2.1,5
			c-1.7,2.5-3.5,0.9-5.2-0.4c-6.3-4.5-13.3-7.8-20.5-10.4c-2-2.2-3-4.9-3.4-7.8C124.8,138.9,127,139.9,129.3,140.9z"/>
		<path class="st1" d="M129.4,151.9c6.7,0.9,11.5,5.5,16.9,8.9c2.4,1.5,2.5,4.4,0.3,6.7C138.3,165.1,133,159.3,129.4,151.9z"/>
		<path class="st2" d="M212.4,181c0-3.2,0.9-6.2,3-8.8c5.5,1.1,10.8,2.4,11,9.5C221.6,182.1,217,181.8,212.4,181z"/>
		<path class="st4" d="M107.5,129.7c0.7-0.8,1.1-0.4,1.5,0.4C108.4,130.1,107.9,129.9,107.5,129.7z"/>
		<path class="st5" d="M128.6,86.2c-8.5-1.3-16.2-5.3-24.3-8.2c-12-4.3-23.7-9.4-35.5-14.2c-8.5-3.5-17.3-5.5-26.5-5.7
			c-3.8-0.1-6.4-1.5-8.8-4.1c-2.3-2.4-4.3-5-2-8.2c2.3-3.3,5.1-1.1,7.7,0c5.3,2.4,11.2,2.2,16.7,3.7c20.4,5.4,39,15.8,59.2,21.8
			c5,1.5,9.7,3.6,15,4.2c3.6,0.4,7.5,2,6.8,6.9C136.1,87.2,131.9,85.8,128.6,86.2z"/>
		<path class="st3" d="M202.9,53.3c-5.7,7.8-8.3,17.7-16.5,26.5c0-6.6,1.8-10.5,3.4-14.4c2.4-5.6,5.7-10.5,5.6-17.3
			c-0.1-4.1,3.3-8,9-5.9C203.5,45.9,195.9,48.6,202.9,53.3z"/>
		<path class="st4" d="M275,81.3c-10.1-1.4-19.7-7-30.4-3.1c-2.4,0.9-5.1-0.2-7.4-1.6c0.2-2.3,1.3-4.2,3.6-4.4
			c11.3-1.2,22.2,0.1,32.5,4.9C275,77.9,274.8,79.8,275,81.3z"/>
		<path class="st5" d="M182.4,142.5c0.5,5.4-1,9.8-6.5,11.8c-2.7,1-5.8,1.6-7.9-1c-2.4-2.9-0.8-6,1-8.5c2.9-4,7.4-4.2,11.9-3.8
			C181.4,141.5,181.9,142,182.4,142.5z"/>
		<path class="st5" d="M193.4,161.3c-5.9-1.5-5.7-4.9-2.7-9c1.9-2.5,4.6-3.9,7.5-5.1c0.5,0,1,0,1.4,0
			C205.4,155.8,203.8,159.5,193.4,161.3z"/>
		<path class="st4" d="M202.9,53.3c-7-4.7,0.7-7.4,1.5-11c5,0,10-0.2,14.2,3.1c0,1.1,0,2.1-0.1,3.2
			C213.3,50.2,208.1,51.7,202.9,53.3z"/>
		<path class="st5" d="M179.3,98.9c-2.5,0.5-5,1.1-7.5,1.6c-4.6-5.8,0.5-8.1,4.1-10.8c1.3-1,3.1-0.2,4.1,1.2
			C181.9,93.7,180.5,96.3,179.3,98.9z"/>
		<path class="st4" d="M93.3,118.9c-3.7-0.5-6.8-2-9.5-4.6c0-0.5,0-1.1,0-1.6C87.5,114,91.9,114.3,93.3,118.9z"/>
		<path class="st3" d="M218.5,48.6c0-1.1,0-2.1,0.1-3.2c0.8,0.4,2.2,0.7,2.3,1.3C221.2,48.4,219.7,48.4,218.5,48.6z"/>
		<path class="st4" d="M101.1,123.7c-2,0-3.1-1-3.2-3C100,120.6,101,121.7,101.1,123.7z"/>
		<path class="st4" d="M248.2,117.5c-1.6-0.6-3.1-1.1-4.7-1.7c-1.2-2.4-3.3-3.8-5.6-5.1c-10.6-6.1-17-16.6-25.7-24.6
			c9.7-9.1,22.8-9,34.5,0.1c0,2.2-1.7,3-3.2,4.1c-7.8,6-8,8.1,0.5,13.9C249.3,107.8,251.9,111.4,248.2,117.5z"/>
		<path class="st5" d="M206,167.6c-2.2-1.7-1.4-4.1-1.3-6.2c0.4-0.5,0.9-0.9,1.3-1.4c7.6-2.9,7.7-2.8,7.8,6
			C211.4,167.5,208.7,167.7,206,167.6z"/>
	</g>
</g>
</svg>
